<mxfile host="app.diagrams.net" agent="Mozilla/5.0 (Macintosh; Intel Mac OS X 10_15_7) AppleWebKit/537.36 (KHTML, like Gecko) Chrome/133.0.0.0 Safari/537.36" version="26.1.1">
  <diagram name="Page-1" id="74b105a0-9070-1c63-61bc-23e55f88626e">
    <mxGraphModel grid="1" page="0" gridSize="20" guides="1" tooltips="1" connect="1" arrows="1" fold="1" pageScale="1.5" pageWidth="1169" pageHeight="827" background="none" math="0" shadow="0">
      <root>
        <mxCell id="0" style=";html=1;" />
        <mxCell id="1" style=";html=1;" parent="0" />
        <mxCell id="pyckKOF9ap4SfNoBUBwz-23" value="" style="rounded=1;whiteSpace=wrap;html=1;opacity=10;fillColor=#CCFFE6;strokeWidth=4;gradientColor=none;align=left;" vertex="1" parent="1">
          <mxGeometry x="-1780" y="-946.25" width="760" height="206.25" as="geometry" />
        </mxCell>
        <mxCell id="OpU60xmc6u3N7Loq6bro-13" style="edgeStyle=orthogonalEdgeStyle;rounded=0;orthogonalLoop=1;jettySize=auto;html=1;entryX=0;entryY=0.5;entryDx=0;entryDy=0;" edge="1" parent="1" source="voIu3GPFMe8vYq-QdKrB-58" target="ZnYBE6Hh1v-D4rI5ePRh-16">
          <mxGeometry relative="1" as="geometry">
            <Array as="points">
              <mxPoint x="-3320" y="677" />
            </Array>
          </mxGeometry>
        </mxCell>
        <mxCell id="voIu3GPFMe8vYq-QdKrB-58" value="" style="rounded=1;whiteSpace=wrap;html=1;fillColor=#d0cee2;strokeColor=#56517e;opacity=30;" vertex="1" parent="1">
          <mxGeometry x="-3720" y="-520" width="860" height="340" as="geometry" />
        </mxCell>
        <mxCell id="10b056a9c633e61c-30" value="Vipas.AI : AI Inference Marketplace&amp;nbsp;&lt;div&gt;&lt;br&gt;&lt;/div&gt;&lt;div&gt;Platform Architecture&lt;/div&gt;" style="text;strokeColor=none;fillColor=none;html=1;fontSize=52;fontStyle=1;verticalAlign=middle;align=center;" vertex="1" parent="1">
          <mxGeometry x="-3030" y="-2260" width="1590" height="300" as="geometry" />
        </mxCell>
        <mxCell id="OpU60xmc6u3N7Loq6bro-7" style="edgeStyle=orthogonalEdgeStyle;rounded=0;orthogonalLoop=1;jettySize=auto;html=1;entryX=0.5;entryY=0;entryDx=0;entryDy=0;" edge="1" parent="1" source="voIu3GPFMe8vYq-QdKrB-20" target="ZnYBE6Hh1v-D4rI5ePRh-16">
          <mxGeometry relative="1" as="geometry" />
        </mxCell>
        <mxCell id="OpU60xmc6u3N7Loq6bro-8" style="edgeStyle=orthogonalEdgeStyle;rounded=0;orthogonalLoop=1;jettySize=auto;html=1;" edge="1" parent="1" source="voIu3GPFMe8vYq-QdKrB-20" target="OpU60xmc6u3N7Loq6bro-3">
          <mxGeometry relative="1" as="geometry" />
        </mxCell>
        <mxCell id="voIu3GPFMe8vYq-QdKrB-20" value="" style="rounded=1;whiteSpace=wrap;html=1;opacity=10;fillColor=#CCFFE6;strokeWidth=4;gradientColor=none;align=left;" vertex="1" parent="1">
          <mxGeometry x="-2286" y="-640" width="940" height="700" as="geometry" />
        </mxCell>
        <mxCell id="voIu3GPFMe8vYq-QdKrB-21" value="&lt;h1&gt;Control Plane Services&lt;/h1&gt;" style="text;html=1;strokeColor=none;fillColor=none;spacing=5;spacingTop=-20;whiteSpace=wrap;overflow=hidden;rounded=0;" vertex="1" parent="1">
          <mxGeometry x="-2240" y="-620" width="190" height="60" as="geometry" />
        </mxCell>
        <mxCell id="voIu3GPFMe8vYq-QdKrB-29" value="" style="group" vertex="1" connectable="0" parent="1">
          <mxGeometry x="-1940" y="-260" width="195" height="240" as="geometry" />
        </mxCell>
        <mxCell id="voIu3GPFMe8vYq-QdKrB-24" value="Automation" style="sketch=0;outlineConnect=0;fontColor=#232F3E;gradientColor=none;strokeColor=#232F3E;fillColor=#ffffff;dashed=0;verticalLabelPosition=bottom;verticalAlign=top;align=center;html=1;fontSize=12;fontStyle=0;aspect=fixed;shape=mxgraph.aws4.resourceIcon;resIcon=mxgraph.aws4.automation;" vertex="1" parent="voIu3GPFMe8vYq-QdKrB-29">
          <mxGeometry width="60" height="60" as="geometry" />
        </mxCell>
        <mxCell id="voIu3GPFMe8vYq-QdKrB-25" value="&lt;h1&gt;&lt;font style=&quot;font-size: 16px;&quot;&gt;Model Gateway&lt;/font&gt;&lt;/h1&gt;&lt;p style=&quot;line-height: 20%;&quot;&gt;&lt;span style=&quot;background-color: initial;&quot;&gt;Custom Authorization&lt;/span&gt;&lt;/p&gt;&lt;p style=&quot;line-height: 20%;&quot;&gt;&#39;Predict&#39; Traffic Routing&lt;/p&gt;&lt;p style=&quot;line-height: 20%;&quot;&gt;Model Status Reads&lt;/p&gt;&lt;p style=&quot;line-height: 20%;&quot;&gt;Caching&lt;/p&gt;&lt;p style=&quot;line-height: 20%;&quot;&gt;Rate Limiting&lt;/p&gt;&lt;p style=&quot;line-height: 20%;&quot;&gt;Batching&lt;/p&gt;&lt;p style=&quot;line-height: 20%;&quot;&gt;Large Payload storage&lt;/p&gt;&lt;p style=&quot;line-height: 20%;&quot;&gt;&lt;br&gt;&lt;/p&gt;" style="text;html=1;strokeColor=none;fillColor=none;spacing=5;spacingTop=-20;whiteSpace=wrap;overflow=hidden;rounded=0;" vertex="1" parent="voIu3GPFMe8vYq-QdKrB-29">
          <mxGeometry x="60" width="135" height="240" as="geometry" />
        </mxCell>
        <mxCell id="voIu3GPFMe8vYq-QdKrB-30" value="" style="group" vertex="1" connectable="0" parent="1">
          <mxGeometry x="-1914.5" y="-560" width="252" height="120" as="geometry" />
        </mxCell>
        <mxCell id="voIu3GPFMe8vYq-QdKrB-22" value="NAT gateway" style="sketch=0;outlineConnect=0;fontColor=#232F3E;gradientColor=none;strokeColor=#232F3E;fillColor=#ffffff;dashed=0;verticalLabelPosition=bottom;verticalAlign=top;align=center;html=1;fontSize=12;fontStyle=0;aspect=fixed;shape=mxgraph.aws4.resourceIcon;resIcon=mxgraph.aws4.nat_gateway;" vertex="1" parent="voIu3GPFMe8vYq-QdKrB-30">
          <mxGeometry width="60" height="60" as="geometry" />
        </mxCell>
        <mxCell id="voIu3GPFMe8vYq-QdKrB-23" value="&lt;h1&gt;&lt;span style=&quot;background-color: initial;&quot;&gt;&lt;font style=&quot;font-size: 16px;&quot;&gt;API Gateway&lt;/font&gt;&lt;/span&gt;&lt;br&gt;&lt;/h1&gt;&lt;div style=&quot;&quot;&gt;&lt;span style=&quot;background-color: initial;&quot;&gt;&lt;font style=&quot;font-size: 12px;&quot;&gt;API Key Authentication&lt;/font&gt;&lt;/span&gt;&lt;/div&gt;&lt;div style=&quot;&quot;&gt;&lt;span style=&quot;background-color: initial;&quot;&gt;&lt;font style=&quot;font-size: 12px;&quot;&gt;Rate Limiting&lt;/font&gt;&lt;/span&gt;&lt;/div&gt;&lt;div style=&quot;&quot;&gt;&lt;span style=&quot;background-color: initial;&quot;&gt;&lt;font style=&quot;font-size: 12px;&quot;&gt;Throttling&lt;/font&gt;&lt;/span&gt;&lt;/div&gt;&lt;div&gt;&lt;span style=&quot;background-color: initial; font-size: 15px;&quot;&gt;&lt;font style=&quot;font-size: 16px;&quot;&gt;&lt;br&gt;&lt;/font&gt;&lt;/span&gt;&lt;/div&gt;" style="text;html=1;strokeColor=none;fillColor=none;spacing=5;spacingTop=-20;whiteSpace=wrap;overflow=hidden;rounded=0;" vertex="1" parent="voIu3GPFMe8vYq-QdKrB-30">
          <mxGeometry x="62" width="190" height="120" as="geometry" />
        </mxCell>
        <mxCell id="voIu3GPFMe8vYq-QdKrB-31" value="" style="group" vertex="1" connectable="0" parent="1">
          <mxGeometry x="-1560" y="-463" width="163" height="120" as="geometry" />
        </mxCell>
        <mxCell id="voIu3GPFMe8vYq-QdKrB-26" value="Flow logs" style="sketch=0;outlineConnect=0;fontColor=#232F3E;gradientColor=none;strokeColor=#232F3E;fillColor=#ffffff;dashed=0;verticalLabelPosition=bottom;verticalAlign=top;align=center;html=1;fontSize=12;fontStyle=0;aspect=fixed;shape=mxgraph.aws4.resourceIcon;resIcon=mxgraph.aws4.flow_logs;" vertex="1" parent="voIu3GPFMe8vYq-QdKrB-31">
          <mxGeometry width="60" height="60" as="geometry" />
        </mxCell>
        <mxCell id="voIu3GPFMe8vYq-QdKrB-28" value="&lt;h1&gt;&lt;font style=&quot;font-size: 16px;&quot;&gt;Logging&lt;/font&gt;&lt;/h1&gt;&lt;p&gt;Customer logs,&amp;nbsp;&lt;br&gt;Model Logs&lt;br&gt;Agent Logs&lt;/p&gt;&lt;p&gt;&lt;br&gt;&lt;/p&gt;" style="text;html=1;strokeColor=none;fillColor=none;spacing=5;spacingTop=-20;whiteSpace=wrap;overflow=hidden;rounded=0;" vertex="1" parent="voIu3GPFMe8vYq-QdKrB-31">
          <mxGeometry x="60" width="103" height="120" as="geometry" />
        </mxCell>
        <mxCell id="voIu3GPFMe8vYq-QdKrB-46" value="" style="group" vertex="1" connectable="0" parent="1">
          <mxGeometry x="-2680" y="-860" width="380" height="120" as="geometry" />
        </mxCell>
        <mxCell id="voIu3GPFMe8vYq-QdKrB-44" value="" style="outlineConnect=0;dashed=0;verticalLabelPosition=bottom;verticalAlign=top;align=center;html=1;shape=mxgraph.aws3.users;fillColor=#D2D3D3;gradientColor=none;" vertex="1" parent="voIu3GPFMe8vYq-QdKrB-46">
          <mxGeometry width="66" height="63" as="geometry" />
        </mxCell>
        <mxCell id="voIu3GPFMe8vYq-QdKrB-45" value="&lt;h1&gt;Vipas SDK&lt;/h1&gt;&lt;p style=&quot;line-height: 10%;&quot;&gt;Human or System Users using SDK&amp;nbsp;&lt;/p&gt;&lt;p style=&quot;line-height: 10%;&quot;&gt;&lt;span style=&quot;&quot;&gt;&lt;span style=&quot;white-space: pre;&quot;&gt;&amp;nbsp;&amp;nbsp;&amp;nbsp;&amp;nbsp;&lt;/span&gt;&lt;/span&gt;Invoking &#39;Upload Model&#39;, &#39;Predict&#39;&lt;/p&gt;&lt;p style=&quot;line-height: 10%;&quot;&gt;&lt;span style=&quot;&quot;&gt;&lt;span style=&quot;&quot;&gt;&lt;span style=&quot;white-space: pre;&quot;&gt;&amp;nbsp;&amp;nbsp;&amp;nbsp;&amp;nbsp;&lt;/span&gt;&lt;/span&gt;&#39;Get&#39;ting Model Status&lt;/span&gt;&lt;/p&gt;&amp;nbsp; &amp;nbsp; &#39;Get&#39;ting History/Logs" style="text;html=1;strokeColor=none;fillColor=none;spacing=5;spacingTop=-20;whiteSpace=wrap;overflow=hidden;rounded=0;" vertex="1" parent="voIu3GPFMe8vYq-QdKrB-46">
          <mxGeometry x="66" width="314" height="120" as="geometry" />
        </mxCell>
        <mxCell id="ZnYBE6Hh1v-D4rI5ePRh-4" style="edgeStyle=orthogonalEdgeStyle;rounded=0;orthogonalLoop=1;jettySize=auto;html=1;entryX=0.5;entryY=0;entryDx=0;entryDy=0;exitX=0.432;exitY=1.006;exitDx=0;exitDy=0;exitPerimeter=0;" edge="1" parent="1" source="pyckKOF9ap4SfNoBUBwz-23" target="voIu3GPFMe8vYq-QdKrB-20">
          <mxGeometry relative="1" as="geometry">
            <Array as="points">
              <mxPoint x="-1510" y="-739" />
              <mxPoint x="-1510" y="-680" />
              <mxPoint x="-1816" y="-680" />
            </Array>
          </mxGeometry>
        </mxCell>
        <mxCell id="ZnYBE6Hh1v-D4rI5ePRh-11" style="edgeStyle=orthogonalEdgeStyle;rounded=0;orthogonalLoop=1;jettySize=auto;html=1;" edge="1" parent="1" source="voIu3GPFMe8vYq-QdKrB-53" target="voIu3GPFMe8vYq-QdKrB-62">
          <mxGeometry relative="1" as="geometry" />
        </mxCell>
        <mxCell id="voIu3GPFMe8vYq-QdKrB-59" value="&lt;font style=&quot;font-size: 24px;&quot;&gt;&lt;b&gt;Storage&lt;/b&gt;&lt;/font&gt;" style="text;html=1;strokeColor=none;fillColor=none;align=center;verticalAlign=middle;whiteSpace=wrap;rounded=0;" vertex="1" parent="1">
          <mxGeometry x="-3720" y="-490" width="180" height="30" as="geometry" />
        </mxCell>
        <mxCell id="voIu3GPFMe8vYq-QdKrB-64" value="" style="group" vertex="1" connectable="0" parent="1">
          <mxGeometry x="-3560" y="-460" width="268" height="100" as="geometry" />
        </mxCell>
        <mxCell id="voIu3GPFMe8vYq-QdKrB-60" value="" style="shadow=0;dashed=0;html=1;labelPosition=center;verticalLabelPosition=bottom;verticalAlign=top;align=center;outlineConnect=0;shape=mxgraph.veeam.3d.backup_repository;" vertex="1" parent="voIu3GPFMe8vYq-QdKrB-64">
          <mxGeometry width="78" height="51.66666666666667" as="geometry" />
        </mxCell>
        <mxCell id="voIu3GPFMe8vYq-QdKrB-61" value="&lt;h1&gt;&lt;font style=&quot;font-size: 16px;&quot;&gt;Model Repository&lt;/font&gt;&lt;/h1&gt;&lt;p&gt;Model Storage Repo&lt;/p&gt;" style="text;html=1;strokeColor=none;fillColor=none;spacing=5;spacingTop=-20;whiteSpace=wrap;overflow=hidden;rounded=0;" vertex="1" parent="voIu3GPFMe8vYq-QdKrB-64">
          <mxGeometry x="78" width="190" height="100" as="geometry" />
        </mxCell>
        <mxCell id="voIu3GPFMe8vYq-QdKrB-70" value="" style="group" vertex="1" connectable="0" parent="1">
          <mxGeometry x="-3580" y="-320" width="268" height="120" as="geometry" />
        </mxCell>
        <mxCell id="voIu3GPFMe8vYq-QdKrB-67" value="" style="sketch=0;points=[[0,0,0],[0.25,0,0],[0.5,0,0],[0.75,0,0],[1,0,0],[0,1,0],[0.25,1,0],[0.5,1,0],[0.75,1,0],[1,1,0],[0,0.25,0],[0,0.5,0],[0,0.75,0],[1,0.25,0],[1,0.5,0],[1,0.75,0]];outlineConnect=0;fontColor=#232F3E;gradientColor=#F54749;gradientDirection=north;fillColor=#C7131F;strokeColor=#ffffff;dashed=0;verticalLabelPosition=bottom;verticalAlign=top;align=center;html=1;fontSize=12;fontStyle=0;aspect=fixed;shape=mxgraph.aws4.resourceIcon;resIcon=mxgraph.aws4.artifact;" vertex="1" parent="voIu3GPFMe8vYq-QdKrB-70">
          <mxGeometry width="78" height="78" as="geometry" />
        </mxCell>
        <mxCell id="voIu3GPFMe8vYq-QdKrB-69" value="&lt;h1 style=&quot;font-size: 16px;&quot;&gt;&lt;font style=&quot;font-size: 16px;&quot;&gt;Model Container Repository&lt;/font&gt;&lt;/h1&gt;&lt;p style=&quot;font-size: 16px;&quot;&gt;Store Docker images of Transformers, Models and UI Apps&lt;/p&gt;" style="text;html=1;strokeColor=none;fillColor=none;spacing=5;spacingTop=-20;whiteSpace=wrap;overflow=hidden;rounded=0;" vertex="1" parent="voIu3GPFMe8vYq-QdKrB-70">
          <mxGeometry x="78" width="190" height="120" as="geometry" />
        </mxCell>
        <mxCell id="voIu3GPFMe8vYq-QdKrB-71" value="" style="group" vertex="1" connectable="0" parent="1">
          <mxGeometry x="-40" y="-260" width="258" height="120" as="geometry" />
        </mxCell>
        <mxCell id="voIu3GPFMe8vYq-QdKrB-55" value="&lt;h1&gt;&lt;font style=&quot;font-size: 16px;&quot;&gt;Billing&lt;/font&gt;&lt;/h1&gt;&lt;p&gt;Integration to Billing Systems&lt;/p&gt;" style="text;html=1;strokeColor=none;fillColor=none;spacing=5;spacingTop=-20;whiteSpace=wrap;overflow=hidden;rounded=0;" vertex="1" parent="voIu3GPFMe8vYq-QdKrB-71">
          <mxGeometry x="68" width="190" height="120" as="geometry" />
        </mxCell>
        <mxCell id="voIu3GPFMe8vYq-QdKrB-62" value="" style="image;aspect=fixed;html=1;points=[];align=center;fontSize=12;image=img/lib/azure2/migrate/Cost_Management_and_Billing.svg;" vertex="1" parent="voIu3GPFMe8vYq-QdKrB-71">
          <mxGeometry y="8.5" width="68" height="68" as="geometry" />
        </mxCell>
        <mxCell id="voIu3GPFMe8vYq-QdKrB-76" value="" style="group" vertex="1" connectable="0" parent="1">
          <mxGeometry x="-2948" y="-1460" width="340" height="220" as="geometry" />
        </mxCell>
        <mxCell id="voIu3GPFMe8vYq-QdKrB-72" value="" style="sketch=0;points=[[0,0,0],[0.25,0,0],[0.5,0,0],[0.75,0,0],[1,0,0],[0,1,0],[0.25,1,0],[0.5,1,0],[0.75,1,0],[1,1,0],[0,0.25,0],[0,0.5,0],[0,0.75,0],[1,0.25,0],[1,0.5,0],[1,0.75,0]];outlineConnect=0;fontColor=#232F3E;gradientColor=#4D72F3;gradientDirection=north;fillColor=#3334B9;strokeColor=#ffffff;dashed=0;verticalLabelPosition=bottom;verticalAlign=top;align=center;html=1;fontSize=12;fontStyle=0;aspect=fixed;shape=mxgraph.aws4.resourceIcon;resIcon=mxgraph.aws4.support;" vertex="1" parent="voIu3GPFMe8vYq-QdKrB-76">
          <mxGeometry width="78" height="78" as="geometry" />
        </mxCell>
        <mxCell id="voIu3GPFMe8vYq-QdKrB-74" value="&lt;h1 style=&quot;font-size: 16px;&quot;&gt;&lt;font style=&quot;font-size: 16px;&quot;&gt;AI Creators&lt;/font&gt;&lt;/h1&gt;&lt;h1 style=&quot;&quot;&gt;&lt;font style=&quot;font-weight: normal; font-size: 12px;&quot;&gt;Businesses, Startups,&amp;nbsp;&lt;/font&gt;&lt;/h1&gt;&lt;h1 style=&quot;&quot;&gt;&lt;span style=&quot;font-size: 12px; font-weight: normal; background-color: transparent; color: light-dark(rgb(0, 0, 0), rgb(255, 255, 255));&quot;&gt;Scientists, Engineers, Marketers, Tutors&lt;/span&gt;&lt;/h1&gt;&lt;p style=&quot;&quot;&gt;&lt;font style=&quot;font-size: 12px;&quot;&gt;Model Creators, Agent Creators&lt;/font&gt;&lt;/p&gt;" style="text;html=1;strokeColor=none;fillColor=none;spacing=5;spacingTop=-20;whiteSpace=wrap;overflow=hidden;rounded=0;" vertex="1" parent="voIu3GPFMe8vYq-QdKrB-76">
          <mxGeometry x="78" width="262" height="220" as="geometry" />
        </mxCell>
        <mxCell id="voIu3GPFMe8vYq-QdKrB-77" value="" style="group" vertex="1" connectable="0" parent="1">
          <mxGeometry x="-1709" y="-1580" width="259" height="120" as="geometry" />
        </mxCell>
        <mxCell id="voIu3GPFMe8vYq-QdKrB-73" value="" style="image;aspect=fixed;html=1;points=[];align=center;fontSize=12;image=img/lib/azure2/management_governance/My_Customers.svg;" vertex="1" parent="voIu3GPFMe8vYq-QdKrB-77">
          <mxGeometry width="69" height="56.00000000000001" as="geometry" />
        </mxCell>
        <mxCell id="voIu3GPFMe8vYq-QdKrB-75" value="&lt;h1 style=&quot;font-size: 16px;&quot;&gt;AI Consumers&lt;/h1&gt;&lt;p style=&quot;&quot;&gt;Non-tech end-users, Common People&lt;/p&gt;" style="text;html=1;strokeColor=none;fillColor=none;spacing=5;spacingTop=-20;whiteSpace=wrap;overflow=hidden;rounded=0;" vertex="1" parent="voIu3GPFMe8vYq-QdKrB-77">
          <mxGeometry x="69" width="190" height="120" as="geometry" />
        </mxCell>
        <mxCell id="ZnYBE6Hh1v-D4rI5ePRh-1" style="edgeStyle=orthogonalEdgeStyle;rounded=0;orthogonalLoop=1;jettySize=auto;html=1;entryX=0.451;entryY=-0.005;entryDx=0;entryDy=0;entryPerimeter=0;" edge="1" parent="1" source="voIu3GPFMe8vYq-QdKrB-72" target="voIu3GPFMe8vYq-QdKrB-58">
          <mxGeometry relative="1" as="geometry">
            <Array as="points">
              <mxPoint x="-2909" y="-840" />
              <mxPoint x="-3332" y="-840" />
            </Array>
          </mxGeometry>
        </mxCell>
        <mxCell id="ZnYBE6Hh1v-D4rI5ePRh-2" style="edgeStyle=orthogonalEdgeStyle;rounded=0;orthogonalLoop=1;jettySize=auto;html=1;" edge="1" parent="1" source="voIu3GPFMe8vYq-QdKrB-72" target="voIu3GPFMe8vYq-QdKrB-44">
          <mxGeometry relative="1" as="geometry">
            <Array as="points">
              <mxPoint x="-2909" y="-840" />
            </Array>
          </mxGeometry>
        </mxCell>
        <mxCell id="ZnYBE6Hh1v-D4rI5ePRh-3" style="edgeStyle=orthogonalEdgeStyle;rounded=0;orthogonalLoop=1;jettySize=auto;html=1;exitX=0;exitY=1;exitDx=0;exitDy=0;" edge="1" parent="1" source="voIu3GPFMe8vYq-QdKrB-75" target="voIu3GPFMe8vYq-QdKrB-48">
          <mxGeometry relative="1" as="geometry" />
        </mxCell>
        <mxCell id="ZnYBE6Hh1v-D4rI5ePRh-5" style="edgeStyle=orthogonalEdgeStyle;rounded=0;orthogonalLoop=1;jettySize=auto;html=1;" edge="1" parent="1" source="voIu3GPFMe8vYq-QdKrB-22" target="voIu3GPFMe8vYq-QdKrB-24">
          <mxGeometry relative="1" as="geometry" />
        </mxCell>
        <mxCell id="ZnYBE6Hh1v-D4rI5ePRh-6" style="edgeStyle=orthogonalEdgeStyle;rounded=0;orthogonalLoop=1;jettySize=auto;html=1;entryX=0.572;entryY=-0.007;entryDx=0;entryDy=0;entryPerimeter=0;" edge="1" parent="1" source="voIu3GPFMe8vYq-QdKrB-24" target="OpU60xmc6u3N7Loq6bro-3">
          <mxGeometry relative="1" as="geometry" />
        </mxCell>
        <mxCell id="ZnYBE6Hh1v-D4rI5ePRh-9" style="edgeStyle=orthogonalEdgeStyle;rounded=0;orthogonalLoop=1;jettySize=auto;html=1;" edge="1" parent="1" source="voIu3GPFMe8vYq-QdKrB-25" target="voIu3GPFMe8vYq-QdKrB-26">
          <mxGeometry relative="1" as="geometry">
            <Array as="points">
              <mxPoint x="-1812" y="-340" />
              <mxPoint x="-1660" y="-340" />
              <mxPoint x="-1660" y="-433" />
            </Array>
          </mxGeometry>
        </mxCell>
        <mxCell id="ZnYBE6Hh1v-D4rI5ePRh-10" style="edgeStyle=orthogonalEdgeStyle;rounded=0;orthogonalLoop=1;jettySize=auto;html=1;" edge="1" parent="1" source="voIu3GPFMe8vYq-QdKrB-25" target="voIu3GPFMe8vYq-QdKrB-51">
          <mxGeometry relative="1" as="geometry" />
        </mxCell>
        <mxCell id="ZnYBE6Hh1v-D4rI5ePRh-12" value="" style="group" vertex="1" connectable="0" parent="1">
          <mxGeometry x="-1620" y="-275" width="260" height="120" as="geometry" />
        </mxCell>
        <mxCell id="voIu3GPFMe8vYq-QdKrB-51" value="Report" style="strokeColor=#dddddd;shadow=1;strokeWidth=1;rounded=1;absoluteArcSize=1;arcSize=2;labelPosition=center;verticalLabelPosition=middle;align=center;verticalAlign=bottom;spacingLeft=0;fontColor=#999999;fontSize=12;whiteSpace=wrap;spacingBottom=2;html=1;" vertex="1" parent="ZnYBE6Hh1v-D4rI5ePRh-12">
          <mxGeometry width="70" height="85" as="geometry" />
        </mxCell>
        <mxCell id="voIu3GPFMe8vYq-QdKrB-52" value="" style="sketch=0;dashed=0;connectable=0;html=1;fillColor=#757575;strokeColor=none;shape=mxgraph.gcp2.report;part=1;" vertex="1" parent="voIu3GPFMe8vYq-QdKrB-51">
          <mxGeometry x="0.5" width="50" height="50" relative="1" as="geometry">
            <mxPoint x="-25" y="10" as="offset" />
          </mxGeometry>
        </mxCell>
        <mxCell id="voIu3GPFMe8vYq-QdKrB-53" value="&lt;h1 style=&quot;font-size: 16px;&quot;&gt;&lt;font style=&quot;font-size: 16px;&quot;&gt;Metering&lt;/font&gt;&lt;/h1&gt;&lt;p style=&quot;&quot;&gt;&lt;font style=&quot;font-size: 12px;&quot;&gt;Usage per User, App &lt;i&gt;(more granularities as needed)&lt;/i&gt;&lt;/font&gt;&lt;/p&gt;" style="text;html=1;strokeColor=none;fillColor=none;spacing=5;spacingTop=-20;whiteSpace=wrap;overflow=hidden;rounded=0;" vertex="1" parent="ZnYBE6Hh1v-D4rI5ePRh-12">
          <mxGeometry x="70" width="190" height="120" as="geometry" />
        </mxCell>
        <mxCell id="ZnYBE6Hh1v-D4rI5ePRh-13" style="edgeStyle=orthogonalEdgeStyle;rounded=0;orthogonalLoop=1;jettySize=auto;html=1;" edge="1" parent="1" source="voIu3GPFMe8vYq-QdKrB-22" target="voIu3GPFMe8vYq-QdKrB-26">
          <mxGeometry relative="1" as="geometry" />
        </mxCell>
        <mxCell id="ZnYBE6Hh1v-D4rI5ePRh-14" value="" style="group" vertex="1" connectable="0" parent="1">
          <mxGeometry x="-2345" y="600" width="1180" height="180" as="geometry" />
        </mxCell>
        <mxCell id="voIu3GPFMe8vYq-QdKrB-37" value="" style="group" vertex="1" connectable="0" parent="ZnYBE6Hh1v-D4rI5ePRh-14">
          <mxGeometry width="1180" height="180" as="geometry" />
        </mxCell>
        <mxCell id="ZnYBE6Hh1v-D4rI5ePRh-16" value="" style="rounded=1;whiteSpace=wrap;html=1;opacity=10;fillColor=#CCFFE6;strokeWidth=4;gradientColor=none;align=left;" vertex="1" parent="voIu3GPFMe8vYq-QdKrB-37">
          <mxGeometry x="-69.41176470588236" y="-26.25" width="1249.4117647058827" height="206.25" as="geometry" />
        </mxCell>
        <object label="" id="voIu3GPFMe8vYq-QdKrB-3">
          <mxCell style="sketch=0;outlineConnect=0;fontColor=#eff2f5;gradientColor=none;fillColor=#3F8624;strokeColor=none;dashed=0;verticalLabelPosition=bottom;verticalAlign=top;align=center;html=1;fontSize=12;fontStyle=0;aspect=fixed;pointerEvents=1;shape=mxgraph.aws4.multiple_volumes_resource;" vertex="1" parent="voIu3GPFMe8vYq-QdKrB-37">
            <mxGeometry width="34.125" height="26.25" as="geometry" />
          </mxCell>
        </object>
        <mxCell id="voIu3GPFMe8vYq-QdKrB-36" value="&lt;h1 style=&quot;font-size: 16px;&quot;&gt;ML Models&amp;nbsp;&lt;/h1&gt;&lt;h1 style=&quot;font-size: 16px;&quot;&gt;&lt;font style=&quot;color: rgb(0, 0, 255);&quot;&gt;&lt;span style=&quot;text-align: center;&quot;&gt;&amp;amp; Processors&lt;/span&gt;&lt;br&gt;&lt;/font&gt;&lt;/h1&gt;&lt;p&gt;Region: India&lt;/p&gt;&lt;p&gt;Kubernetes Cluster&lt;/p&gt;&lt;p&gt;Provider: AWS EKS&lt;/p&gt;" style="text;html=1;strokeColor=none;fillColor=none;spacing=5;spacingTop=-20;whiteSpace=wrap;overflow=hidden;rounded=0;" vertex="1" parent="voIu3GPFMe8vYq-QdKrB-37">
          <mxGeometry x="90.24" width="219.8" height="160" as="geometry" />
        </mxCell>
        <mxCell id="YQkSSXiVzBJFBjS0m_dn-2" value="DP Assist Service (Caching, AuthZ)" style="shape=process;whiteSpace=wrap;html=1;backgroundOutline=1;" vertex="1" parent="voIu3GPFMe8vYq-QdKrB-37">
          <mxGeometry x="-43" y="40" width="83" height="80" as="geometry" />
        </mxCell>
        <mxCell id="voIu3GPFMe8vYq-QdKrB-38" value="" style="group" vertex="1" connectable="0" parent="ZnYBE6Hh1v-D4rI5ePRh-14">
          <mxGeometry x="869.8960302457467" width="295.1039697542533" height="160" as="geometry" />
        </mxCell>
        <object label="" id="voIu3GPFMe8vYq-QdKrB-39">
          <mxCell style="sketch=0;outlineConnect=0;fontColor=#eff2f5;gradientColor=none;fillColor=#3F8624;strokeColor=none;dashed=0;verticalLabelPosition=bottom;verticalAlign=top;align=center;html=1;fontSize=12;fontStyle=0;aspect=fixed;pointerEvents=1;shape=mxgraph.aws4.multiple_volumes_resource;" vertex="1" parent="voIu3GPFMe8vYq-QdKrB-38">
            <mxGeometry width="34.125" height="26.25" as="geometry" />
          </mxCell>
        </object>
        <mxCell id="voIu3GPFMe8vYq-QdKrB-40" value="&lt;h1 style=&quot;font-size: 16px;&quot;&gt;ML Models&amp;nbsp;&lt;/h1&gt;&lt;h1 style=&quot;font-size: 16px;&quot;&gt;&lt;span style=&quot;text-align: center; color: rgb(239, 242, 245);&quot;&gt;&lt;font style=&quot;color: rgb(51, 51, 255);&quot;&gt;&amp;amp; Processors&amp;nbsp;&lt;/font&gt;&lt;/span&gt;&lt;br&gt;&lt;/h1&gt;&lt;p&gt;Region: EU&lt;/p&gt;&lt;p&gt;&lt;span style=&quot;background-color: transparent; color: light-dark(rgb(0, 0, 0), rgb(255, 255, 255));&quot;&gt;Kubernetes&lt;/span&gt;&amp;nbsp;Cluster&lt;/p&gt;&lt;p&gt;Provider: Azure&lt;/p&gt;" style="text;html=1;strokeColor=none;fillColor=none;spacing=5;spacingTop=-20;whiteSpace=wrap;overflow=hidden;rounded=0;" vertex="1" parent="voIu3GPFMe8vYq-QdKrB-38">
          <mxGeometry x="85.88846880907371" width="209.21550094517957" height="160" as="geometry" />
        </mxCell>
        <mxCell id="YQkSSXiVzBJFBjS0m_dn-4" value="DP Assist Service (Caching, AuthZ)" style="shape=process;whiteSpace=wrap;html=1;backgroundOutline=1;" vertex="1" parent="voIu3GPFMe8vYq-QdKrB-38">
          <mxGeometry x="-24.43603024574668" y="40" width="83" height="80" as="geometry" />
        </mxCell>
        <mxCell id="voIu3GPFMe8vYq-QdKrB-41" value="" style="group" vertex="1" connectable="0" parent="ZnYBE6Hh1v-D4rI5ePRh-14">
          <mxGeometry x="451.4650283553875" width="295.1039697542533" height="140" as="geometry" />
        </mxCell>
        <object label="" id="voIu3GPFMe8vYq-QdKrB-42">
          <mxCell style="sketch=0;outlineConnect=0;fontColor=#eff2f5;gradientColor=none;fillColor=#3F8624;strokeColor=none;dashed=0;verticalLabelPosition=bottom;verticalAlign=top;align=center;html=1;fontSize=12;fontStyle=0;aspect=fixed;pointerEvents=1;shape=mxgraph.aws4.multiple_volumes_resource;" vertex="1" parent="voIu3GPFMe8vYq-QdKrB-41">
            <mxGeometry width="34.125" height="26.25" as="geometry" />
          </mxCell>
        </object>
        <mxCell id="voIu3GPFMe8vYq-QdKrB-43" value="&lt;h1 style=&quot;font-size: 16px;&quot;&gt;ML Models&amp;nbsp;&lt;/h1&gt;&lt;h1 style=&quot;font-size: 16px;&quot;&gt;&lt;span style=&quot;text-align: center; color: rgb(239, 242, 245);&quot;&gt;&lt;font style=&quot;color: rgb(51, 51, 255);&quot;&gt;&amp;amp; Processors&amp;nbsp;&lt;/font&gt;&lt;/span&gt;&lt;br&gt;&lt;/h1&gt;&lt;p&gt;Region: US&lt;/p&gt;&lt;p&gt;&lt;span style=&quot;background-color: transparent; color: light-dark(rgb(0, 0, 0), rgb(255, 255, 255));&quot;&gt;Kubernetes&lt;/span&gt;&amp;nbsp;Cluster&lt;/p&gt;&lt;p&gt;Provider: GCP GKE&lt;/p&gt;" style="text;html=1;strokeColor=none;fillColor=none;spacing=5;spacingTop=-20;whiteSpace=wrap;overflow=hidden;rounded=0;" vertex="1" parent="voIu3GPFMe8vYq-QdKrB-41">
          <mxGeometry x="85.88846880907371" width="209.21550094517957" height="140" as="geometry" />
        </mxCell>
        <mxCell id="YQkSSXiVzBJFBjS0m_dn-3" value="DP Assist Service (Caching, AuthZ)" style="shape=process;whiteSpace=wrap;html=1;backgroundOutline=1;" vertex="1" parent="voIu3GPFMe8vYq-QdKrB-41">
          <mxGeometry x="-24.435028355387544" y="40" width="83" height="80" as="geometry" />
        </mxCell>
        <mxCell id="ZnYBE6Hh1v-D4rI5ePRh-21" style="edgeStyle=orthogonalEdgeStyle;rounded=0;orthogonalLoop=1;jettySize=auto;html=1;" edge="1" parent="1" source="voIu3GPFMe8vYq-QdKrB-45" target="voIu3GPFMe8vYq-QdKrB-20">
          <mxGeometry relative="1" as="geometry">
            <Array as="points">
              <mxPoint x="-2160" y="-800" />
            </Array>
          </mxGeometry>
        </mxCell>
        <mxCell id="OpU60xmc6u3N7Loq6bro-5" value="" style="group" vertex="1" connectable="0" parent="1">
          <mxGeometry x="-2937" y="360" width="860" height="200" as="geometry" />
        </mxCell>
        <mxCell id="OpU60xmc6u3N7Loq6bro-3" value="" style="rounded=1;whiteSpace=wrap;html=1;fillColor=#d0cee2;strokeColor=#56517e;opacity=30;" vertex="1" parent="OpU60xmc6u3N7Loq6bro-5">
          <mxGeometry y="-140" width="860" height="340" as="geometry" />
        </mxCell>
        <mxCell id="pyckKOF9ap4SfNoBUBwz-45" value="" style="image;html=1;image=img/lib/clip_art/computers/Database_Add_128x128.png" vertex="1" parent="OpU60xmc6u3N7Loq6bro-5">
          <mxGeometry x="327" y="91" width="80" height="80" as="geometry" />
        </mxCell>
        <mxCell id="OpU60xmc6u3N7Loq6bro-2" value="" style="image;html=1;image=img/lib/clip_art/computers/Database_128x128.png" vertex="1" parent="OpU60xmc6u3N7Loq6bro-5">
          <mxGeometry x="202" y="90" width="80" height="80" as="geometry" />
        </mxCell>
        <mxCell id="OpU60xmc6u3N7Loq6bro-9" value="&lt;b&gt;PostGreSQL&lt;/b&gt;" style="text;html=1;strokeColor=none;fillColor=none;align=center;verticalAlign=middle;whiteSpace=wrap;rounded=0;" vertex="1" parent="OpU60xmc6u3N7Loq6bro-5">
          <mxGeometry x="180" y="61" width="60" height="30" as="geometry" />
        </mxCell>
        <mxCell id="pyckKOF9ap4SfNoBUBwz-46" value="&lt;b&gt;AWS S3&lt;/b&gt;" style="text;html=1;strokeColor=none;fillColor=none;align=center;verticalAlign=middle;whiteSpace=wrap;rounded=0;" vertex="1" parent="OpU60xmc6u3N7Loq6bro-5">
          <mxGeometry x="310" y="60" width="60" height="30" as="geometry" />
        </mxCell>
        <mxCell id="YQkSSXiVzBJFBjS0m_dn-26" value="" style="image;html=1;image=img/lib/clip_art/computers/Database_128x128.png" vertex="1" parent="OpU60xmc6u3N7Loq6bro-5">
          <mxGeometry x="77" y="91" width="80" height="80" as="geometry" />
        </mxCell>
        <mxCell id="YQkSSXiVzBJFBjS0m_dn-24" value="" style="image;html=1;image=img/lib/clip_art/computers/Database_128x128.png" vertex="1" parent="OpU60xmc6u3N7Loq6bro-5">
          <mxGeometry x="437" y="91" width="80" height="80" as="geometry" />
        </mxCell>
        <mxCell id="YQkSSXiVzBJFBjS0m_dn-27" value="&lt;b&gt;AWS EFS&lt;/b&gt;" style="text;html=1;strokeColor=none;fillColor=none;align=center;verticalAlign=middle;whiteSpace=wrap;rounded=0;" vertex="1" parent="OpU60xmc6u3N7Loq6bro-5">
          <mxGeometry x="57" y="63" width="60" height="30" as="geometry" />
        </mxCell>
        <mxCell id="YQkSSXiVzBJFBjS0m_dn-25" value="&lt;b&gt;AWS Lustre PDFS&lt;/b&gt;" style="text;html=1;strokeColor=none;fillColor=none;align=center;verticalAlign=middle;whiteSpace=wrap;rounded=0;" vertex="1" parent="OpU60xmc6u3N7Loq6bro-5">
          <mxGeometry x="423" y="61" width="97" height="30" as="geometry" />
        </mxCell>
        <mxCell id="YQkSSXiVzBJFBjS0m_dn-30" value="" style="html=1;verticalLabelPosition=bottom;align=center;labelBackgroundColor=#ffffff;verticalAlign=top;strokeWidth=2;strokeColor=#0080F0;shadow=0;dashed=0;shape=mxgraph.ios7.icons.data;" vertex="1" parent="OpU60xmc6u3N7Loq6bro-5">
          <mxGeometry x="660" y="-40" width="80" height="41.1" as="geometry" />
        </mxCell>
        <mxCell id="YQkSSXiVzBJFBjS0m_dn-31" value="&lt;span style=&quot;font-size: 18px;&quot;&gt;&lt;b&gt;Filebeat&lt;/b&gt;&lt;/span&gt;" style="text;html=1;align=center;verticalAlign=middle;whiteSpace=wrap;rounded=0;" vertex="1" parent="OpU60xmc6u3N7Loq6bro-5">
          <mxGeometry x="651" y="-70" width="60" height="30" as="geometry" />
        </mxCell>
        <mxCell id="ZnYBE6Hh1v-D4rI5ePRh-20" value="" style="group" vertex="1" connectable="0" parent="OpU60xmc6u3N7Loq6bro-5">
          <mxGeometry x="336.1" y="-120" width="270.79999999999995" height="160" as="geometry" />
        </mxCell>
        <mxCell id="voIu3GPFMe8vYq-QdKrB-32" value="" style="shape=datastore;whiteSpace=wrap;html=1;" vertex="1" parent="ZnYBE6Hh1v-D4rI5ePRh-20">
          <mxGeometry y="5" width="51.6" height="70" as="geometry" />
        </mxCell>
        <mxCell id="voIu3GPFMe8vYq-QdKrB-33" value="&lt;h1 style=&quot;&quot;&gt;&lt;font style=&quot;font-size: 18px;&quot;&gt;Redis Cache&lt;/font&gt;&lt;/h1&gt;&lt;p style=&quot;&quot;&gt;&lt;span style=&quot;font-size: 13px;&quot;&gt;Cache to store model inference, frequently used user/model/meta data, .&lt;/span&gt;&lt;/p&gt;" style="text;html=1;strokeColor=none;fillColor=none;spacing=5;spacingTop=-20;whiteSpace=wrap;overflow=hidden;rounded=0;" vertex="1" parent="ZnYBE6Hh1v-D4rI5ePRh-20">
          <mxGeometry x="51.6" width="128.4" height="160" as="geometry" />
        </mxCell>
        <mxCell id="YQkSSXiVzBJFBjS0m_dn-50" value="" style="outlineConnect=0;dashed=0;verticalLabelPosition=bottom;verticalAlign=top;align=center;html=1;shape=mxgraph.aws3.queue;fillColor=#D9A741;gradientColor=none;" vertex="1" parent="OpU60xmc6u3N7Loq6bro-5">
          <mxGeometry x="609" y="77" width="73.5" height="48" as="geometry" />
        </mxCell>
        <mxCell id="YQkSSXiVzBJFBjS0m_dn-51" value="&lt;b&gt;AWS SQS&lt;/b&gt;" style="text;html=1;strokeColor=none;fillColor=none;align=center;verticalAlign=middle;whiteSpace=wrap;rounded=0;" vertex="1" parent="OpU60xmc6u3N7Loq6bro-5">
          <mxGeometry x="585.5" y="40" width="97" height="30" as="geometry" />
        </mxCell>
        <mxCell id="OpU60xmc6u3N7Loq6bro-12" style="edgeStyle=orthogonalEdgeStyle;rounded=0;orthogonalLoop=1;jettySize=auto;html=1;" edge="1" parent="1" target="OpU60xmc6u3N7Loq6bro-3">
          <mxGeometry relative="1" as="geometry">
            <mxPoint x="-3320" y="-180" as="sourcePoint" />
            <Array as="points">
              <mxPoint x="-3320" y="140" />
              <mxPoint x="-2507" y="140" />
            </Array>
          </mxGeometry>
        </mxCell>
        <mxCell id="OpU60xmc6u3N7Loq6bro-73" style="edgeStyle=orthogonalEdgeStyle;rounded=0;orthogonalLoop=1;jettySize=auto;html=1;" edge="1" parent="1" source="OpU60xmc6u3N7Loq6bro-15">
          <mxGeometry relative="1" as="geometry">
            <mxPoint x="-1820" y="-640" as="targetPoint" />
            <Array as="points">
              <mxPoint x="-1820" y="-640" />
            </Array>
          </mxGeometry>
        </mxCell>
        <mxCell id="OpU60xmc6u3N7Loq6bro-15" value="" style="html=1;verticalLabelPosition=bottom;labelBackgroundColor=#ffffff;verticalAlign=top;shadow=0;dashed=0;strokeWidth=1;shape=mxgraph.ios7.misc.ipad13inch;strokeColor=#6c8ebf;fillColor=#dae8fc;" vertex="1" parent="1">
          <mxGeometry x="-1860.5" y="-1380" width="420.5" height="300" as="geometry" />
        </mxCell>
        <mxCell id="OpU60xmc6u3N7Loq6bro-24" value="" style="group" vertex="1" connectable="0" parent="1">
          <mxGeometry x="-1715" y="-1354" width="125" height="60" as="geometry" />
        </mxCell>
        <mxCell id="OpU60xmc6u3N7Loq6bro-18" value="" style="whiteSpace=wrap;html=1;verticalAlign=top;strokeColor=#c0c0c0;labelBackgroundColor=#ffffff;shadow=0;dashed=0;strokeWidth=1;" vertex="1" parent="OpU60xmc6u3N7Loq6bro-24">
          <mxGeometry width="125.00000000000001" height="60" as="geometry" />
        </mxCell>
        <mxCell id="OpU60xmc6u3N7Loq6bro-23" value="&lt;font style=&quot;font-size: 18px;&quot;&gt;Search&lt;/font&gt;" style="text;html=1;strokeColor=none;fillColor=none;align=center;verticalAlign=middle;whiteSpace=wrap;rounded=0;" vertex="1" parent="OpU60xmc6u3N7Loq6bro-24">
          <mxGeometry width="125.00000000000001" height="60" as="geometry" />
        </mxCell>
        <mxCell id="OpU60xmc6u3N7Loq6bro-25" value="" style="group" vertex="1" connectable="0" parent="1">
          <mxGeometry x="-1830" y="-1294" width="120" height="60" as="geometry" />
        </mxCell>
        <mxCell id="OpU60xmc6u3N7Loq6bro-26" value="" style="whiteSpace=wrap;html=1;verticalAlign=top;strokeColor=#c0c0c0;labelBackgroundColor=#ffffff;shadow=0;dashed=0;strokeWidth=1;" vertex="1" parent="OpU60xmc6u3N7Loq6bro-25">
          <mxGeometry width="120" height="60" as="geometry" />
        </mxCell>
        <mxCell id="OpU60xmc6u3N7Loq6bro-27" value="&lt;font style=&quot;font-size: 18px;&quot;&gt;Settings&lt;/font&gt;" style="text;html=1;strokeColor=none;fillColor=none;align=center;verticalAlign=middle;whiteSpace=wrap;rounded=0;" vertex="1" parent="OpU60xmc6u3N7Loq6bro-25">
          <mxGeometry width="120" height="60" as="geometry" />
        </mxCell>
        <mxCell id="OpU60xmc6u3N7Loq6bro-28" value="" style="group" vertex="1" connectable="0" parent="1">
          <mxGeometry x="-1590" y="-1354" width="120" height="60" as="geometry" />
        </mxCell>
        <mxCell id="OpU60xmc6u3N7Loq6bro-29" value="" style="whiteSpace=wrap;html=1;verticalAlign=top;strokeColor=#c0c0c0;labelBackgroundColor=#ffffff;shadow=0;dashed=0;strokeWidth=1;" vertex="1" parent="OpU60xmc6u3N7Loq6bro-28">
          <mxGeometry width="120" height="60" as="geometry" />
        </mxCell>
        <mxCell id="OpU60xmc6u3N7Loq6bro-30" value="&lt;font style=&quot;font-size: 18px;&quot;&gt;Model/Agent Registry&lt;/font&gt;" style="text;html=1;strokeColor=none;fillColor=none;align=center;verticalAlign=middle;whiteSpace=wrap;rounded=0;" vertex="1" parent="OpU60xmc6u3N7Loq6bro-28">
          <mxGeometry width="120" height="60" as="geometry" />
        </mxCell>
        <mxCell id="OpU60xmc6u3N7Loq6bro-31" value="" style="group" vertex="1" connectable="0" parent="1">
          <mxGeometry x="-1710" y="-1294" width="120" height="60" as="geometry" />
        </mxCell>
        <mxCell id="OpU60xmc6u3N7Loq6bro-32" value="" style="whiteSpace=wrap;html=1;verticalAlign=top;strokeColor=#c0c0c0;labelBackgroundColor=#ffffff;shadow=0;dashed=0;strokeWidth=1;" vertex="1" parent="OpU60xmc6u3N7Loq6bro-31">
          <mxGeometry width="120" height="60" as="geometry" />
        </mxCell>
        <mxCell id="OpU60xmc6u3N7Loq6bro-33" value="&lt;font style=&quot;font-size: 18px;&quot;&gt;Payment&lt;/font&gt;" style="text;html=1;strokeColor=none;fillColor=none;align=center;verticalAlign=middle;whiteSpace=wrap;rounded=0;" vertex="1" parent="OpU60xmc6u3N7Loq6bro-31">
          <mxGeometry width="120" height="60" as="geometry" />
        </mxCell>
        <mxCell id="OpU60xmc6u3N7Loq6bro-34" value="" style="group" vertex="1" connectable="0" parent="1">
          <mxGeometry x="-1830" y="-1354" width="120" height="60" as="geometry" />
        </mxCell>
        <mxCell id="OpU60xmc6u3N7Loq6bro-35" value="" style="whiteSpace=wrap;html=1;verticalAlign=top;strokeColor=#c0c0c0;labelBackgroundColor=#ffffff;shadow=0;dashed=0;strokeWidth=1;" vertex="1" parent="OpU60xmc6u3N7Loq6bro-34">
          <mxGeometry width="120" height="60" as="geometry" />
        </mxCell>
        <mxCell id="OpU60xmc6u3N7Loq6bro-36" value="&lt;font style=&quot;font-size: 18px;&quot;&gt;Dashboard&lt;/font&gt;" style="text;html=1;strokeColor=none;fillColor=none;align=center;verticalAlign=middle;whiteSpace=wrap;rounded=0;" vertex="1" parent="OpU60xmc6u3N7Loq6bro-34">
          <mxGeometry width="120" height="60" as="geometry" />
        </mxCell>
        <mxCell id="OpU60xmc6u3N7Loq6bro-37" value="" style="group" vertex="1" connectable="0" parent="1">
          <mxGeometry x="-1590" y="-1294" width="120" height="60" as="geometry" />
        </mxCell>
        <mxCell id="OpU60xmc6u3N7Loq6bro-38" value="" style="whiteSpace=wrap;html=1;verticalAlign=top;strokeColor=#c0c0c0;labelBackgroundColor=#ffffff;shadow=0;dashed=0;strokeWidth=1;" vertex="1" parent="OpU60xmc6u3N7Loq6bro-37">
          <mxGeometry width="120" height="60" as="geometry" />
        </mxCell>
        <mxCell id="OpU60xmc6u3N7Loq6bro-39" value="&lt;font style=&quot;font-size: 18px;&quot;&gt;Monitoring&lt;/font&gt;" style="text;html=1;strokeColor=none;fillColor=none;align=center;verticalAlign=middle;whiteSpace=wrap;rounded=0;" vertex="1" parent="OpU60xmc6u3N7Loq6bro-37">
          <mxGeometry width="120" height="60" as="geometry" />
        </mxCell>
        <mxCell id="OpU60xmc6u3N7Loq6bro-65" value="" style="group" vertex="1" connectable="0" parent="1">
          <mxGeometry x="-1500" y="-920" width="260" height="120" as="geometry" />
        </mxCell>
        <mxCell id="voIu3GPFMe8vYq-QdKrB-49" value="&lt;h1&gt;Agents&lt;/h1&gt;" style="text;html=1;strokeColor=none;fillColor=none;spacing=5;spacingTop=-20;whiteSpace=wrap;overflow=hidden;rounded=0;" vertex="1" parent="OpU60xmc6u3N7Loq6bro-65">
          <mxGeometry x="180" y="-20" width="140" height="40" as="geometry" />
        </mxCell>
        <mxCell id="OpU60xmc6u3N7Loq6bro-63" value="Finance" style="sketch=0;outlineConnect=0;fontColor=#232F3E;gradientColor=none;strokeColor=#232F3E;fillColor=#ffffff;dashed=0;verticalLabelPosition=bottom;verticalAlign=top;align=center;html=1;fontSize=12;fontStyle=0;aspect=fixed;shape=mxgraph.aws4.resourceIcon;resIcon=mxgraph.aws4.message;" vertex="1" parent="OpU60xmc6u3N7Loq6bro-65">
          <mxGeometry x="20" y="60" width="60" height="60" as="geometry" />
        </mxCell>
        <mxCell id="OpU60xmc6u3N7Loq6bro-64" value="Health" style="sketch=0;outlineConnect=0;fontColor=#232F3E;gradientColor=none;strokeColor=#232F3E;fillColor=#ffffff;dashed=0;verticalLabelPosition=bottom;verticalAlign=top;align=center;html=1;fontSize=12;fontStyle=0;aspect=fixed;shape=mxgraph.aws4.resourceIcon;resIcon=mxgraph.aws4.message;" vertex="1" parent="OpU60xmc6u3N7Loq6bro-65">
          <mxGeometry x="120" y="60" width="60" height="60" as="geometry" />
        </mxCell>
        <mxCell id="OpU60xmc6u3N7Loq6bro-66" value="&lt;h1&gt;&lt;font style=&quot;font-size: 36px;&quot;&gt;www.vipas.ai&lt;/font&gt;&lt;/h1&gt;&lt;p&gt;&lt;br&gt;&lt;/p&gt;" style="text;html=1;strokeColor=#b85450;fillColor=#f8cecc;spacing=5;spacingTop=-20;whiteSpace=wrap;overflow=hidden;rounded=0;align=center;" vertex="1" parent="1">
          <mxGeometry x="-1380" y="-1420" width="300" height="60" as="geometry" />
        </mxCell>
        <mxCell id="OpU60xmc6u3N7Loq6bro-69" value="" style="group" vertex="1" connectable="0" parent="1">
          <mxGeometry x="-2176" y="-540" width="136" height="64" as="geometry" />
        </mxCell>
        <mxCell id="OpU60xmc6u3N7Loq6bro-67" value="" style="image;aspect=fixed;html=1;points=[];align=center;fontSize=12;image=img/lib/azure2/intune/Azure_AD_Roles_and_Administrators.svg;" vertex="1" parent="OpU60xmc6u3N7Loq6bro-69">
          <mxGeometry width="64" height="64" as="geometry" />
        </mxCell>
        <mxCell id="OpU60xmc6u3N7Loq6bro-68" value="&lt;font style=&quot;font-size: 18px;&quot;&gt;AuthN/AuthZ&lt;/font&gt;" style="text;html=1;strokeColor=none;fillColor=none;align=center;verticalAlign=middle;whiteSpace=wrap;rounded=0;" vertex="1" parent="OpU60xmc6u3N7Loq6bro-69">
          <mxGeometry x="76" width="60" height="30" as="geometry" />
        </mxCell>
        <mxCell id="OpU60xmc6u3N7Loq6bro-71" style="edgeStyle=orthogonalEdgeStyle;rounded=0;orthogonalLoop=1;jettySize=auto;html=1;" edge="1" parent="1" source="voIu3GPFMe8vYq-QdKrB-22" target="voIu3GPFMe8vYq-QdKrB-20">
          <mxGeometry relative="1" as="geometry" />
        </mxCell>
        <mxCell id="OpU60xmc6u3N7Loq6bro-72" style="edgeStyle=orthogonalEdgeStyle;rounded=0;orthogonalLoop=1;jettySize=auto;html=1;" edge="1" parent="1" source="voIu3GPFMe8vYq-QdKrB-22" target="OpU60xmc6u3N7Loq6bro-68">
          <mxGeometry relative="1" as="geometry" />
        </mxCell>
        <mxCell id="pyckKOF9ap4SfNoBUBwz-4" value="" style="group" vertex="1" connectable="0" parent="1">
          <mxGeometry x="-3210" y="-320" width="232.5" height="86" as="geometry" />
        </mxCell>
        <mxCell id="pyckKOF9ap4SfNoBUBwz-1" value="" style="verticalLabelPosition=bottom;html=1;verticalAlign=top;align=center;strokeColor=none;fillColor=#00BEF2;shape=mxgraph.azure.cloud_service_package_file;" vertex="1" parent="pyckKOF9ap4SfNoBUBwz-4">
          <mxGeometry width="42.5" height="50" as="geometry" />
        </mxCell>
        <mxCell id="pyckKOF9ap4SfNoBUBwz-2" value="&lt;h1&gt;&lt;font style=&quot;font-size: 18px;&quot;&gt;Agent Package Repo&lt;/font&gt;&lt;/h1&gt;&lt;p&gt;&lt;font style=&quot;font-size: 14px;&quot;&gt;Python Package repository&lt;/font&gt;&lt;/p&gt;" style="text;html=1;spacing=5;spacingTop=-20;whiteSpace=wrap;overflow=hidden;rounded=0;" vertex="1" parent="pyckKOF9ap4SfNoBUBwz-4">
          <mxGeometry x="42.5" width="190" height="86" as="geometry" />
        </mxCell>
        <mxCell id="pyckKOF9ap4SfNoBUBwz-5" value="" style="group" vertex="1" connectable="0" parent="1">
          <mxGeometry x="-3210" y="-473" width="262" height="100" as="geometry" />
        </mxCell>
        <mxCell id="voIu3GPFMe8vYq-QdKrB-63" value="" style="image;aspect=fixed;html=1;points=[];align=center;fontSize=12;image=img/lib/azure2/general/Code.svg;" vertex="1" parent="pyckKOF9ap4SfNoBUBwz-5">
          <mxGeometry y="10" width="64" height="52" as="geometry" />
        </mxCell>
        <mxCell id="voIu3GPFMe8vYq-QdKrB-65" value="&lt;h1&gt;&lt;font style=&quot;font-size: 16px;&quot;&gt;Agent Code Repository&lt;/font&gt;&lt;/h1&gt;&lt;p&gt;Transformer, UI-App Code storage&lt;/p&gt;" style="text;html=1;strokeColor=none;fillColor=none;spacing=5;spacingTop=-20;whiteSpace=wrap;overflow=hidden;rounded=0;" vertex="1" parent="pyckKOF9ap4SfNoBUBwz-5">
          <mxGeometry x="72" width="190" height="100" as="geometry" />
        </mxCell>
        <mxCell id="pyckKOF9ap4SfNoBUBwz-26" value="" style="group" vertex="1" connectable="0" parent="1">
          <mxGeometry x="-1180" y="-534" width="720" height="300" as="geometry" />
        </mxCell>
        <mxCell id="pyckKOF9ap4SfNoBUBwz-27" value="" style="rounded=1;whiteSpace=wrap;html=1;fillColor=#d0cee2;strokeColor=#56517e;opacity=30;" vertex="1" parent="pyckKOF9ap4SfNoBUBwz-26">
          <mxGeometry y="-150" width="720" height="450" as="geometry" />
        </mxCell>
        <mxCell id="pyckKOF9ap4SfNoBUBwz-29" value="&lt;font style=&quot;font-size: 24px;&quot;&gt;&lt;b&gt;Monitoring&lt;/b&gt;&lt;/font&gt;" style="text;html=1;strokeColor=none;fillColor=none;align=center;verticalAlign=middle;whiteSpace=wrap;rounded=0;" vertex="1" parent="pyckKOF9ap4SfNoBUBwz-26">
          <mxGeometry x="40" y="-108" width="160" height="30" as="geometry" />
        </mxCell>
        <mxCell id="pyckKOF9ap4SfNoBUBwz-35" value="" style="sketch=0;points=[[0,0,0],[0.25,0,0],[0.5,0,0],[0.75,0,0],[1,0,0],[0,1,0],[0.25,1,0],[0.5,1,0],[0.75,1,0],[1,1,0],[0,0.25,0],[0,0.5,0],[0,0.75,0],[1,0.25,0],[1,0.5,0],[1,0.75,0]];outlineConnect=0;fontColor=#232F3E;fillColor=#01A88D;strokeColor=#ffffff;dashed=0;verticalLabelPosition=bottom;verticalAlign=top;align=center;html=1;fontSize=12;fontStyle=0;aspect=fixed;shape=mxgraph.aws4.resourceIcon;resIcon=mxgraph.aws4.lookout_for_metrics;" vertex="1" parent="pyckKOF9ap4SfNoBUBwz-26">
          <mxGeometry x="80" y="-35" width="78" height="78" as="geometry" />
        </mxCell>
        <mxCell id="pyckKOF9ap4SfNoBUBwz-36" value="" style="sketch=0;points=[[0.015,0.015,0],[0.985,0.015,0],[0.985,0.985,0],[0.015,0.985,0],[0.25,0,0],[0.5,0,0],[0.75,0,0],[1,0.25,0],[1,0.5,0],[1,0.75,0],[0.75,1,0],[0.5,1,0],[0.25,1,0],[0,0.75,0],[0,0.5,0],[0,0.25,0]];verticalLabelPosition=bottom;html=1;verticalAlign=top;aspect=fixed;align=center;pointerEvents=1;shape=mxgraph.cisco19.rect;prIcon=virtual_matrix_switch;fillColor=#FAFAFA;strokeColor=#005073;" vertex="1" parent="pyckKOF9ap4SfNoBUBwz-26">
          <mxGeometry x="80" y="79" width="50" height="50" as="geometry" />
        </mxCell>
        <mxCell id="pyckKOF9ap4SfNoBUBwz-37" value="" style="outlineConnect=0;dashed=0;verticalLabelPosition=bottom;verticalAlign=top;align=center;html=1;shape=mxgraph.aws3.flow_logs;fillColor=#F58534;gradientColor=none;" vertex="1" parent="pyckKOF9ap4SfNoBUBwz-26">
          <mxGeometry x="420" y="58" width="69" height="72" as="geometry" />
        </mxCell>
        <mxCell id="pyckKOF9ap4SfNoBUBwz-38" value="" style="image;html=1;image=img/lib/clip_art/finance/Pie_Chart_128x128.png" vertex="1" parent="pyckKOF9ap4SfNoBUBwz-26">
          <mxGeometry x="409" y="-80" width="80" height="80" as="geometry" />
        </mxCell>
        <mxCell id="pyckKOF9ap4SfNoBUBwz-39" value="&lt;h1&gt;&lt;font style=&quot;font-size: 14px;&quot;&gt;Grafana&lt;/font&gt;&lt;/h1&gt;&lt;p&gt;Visualization of all Ops, Alerting, Pagers etc&lt;/p&gt;" style="text;html=1;spacing=5;spacingTop=-20;whiteSpace=wrap;overflow=hidden;rounded=0;" vertex="1" parent="pyckKOF9ap4SfNoBUBwz-26">
          <mxGeometry x="158" y="-56" width="190" height="120" as="geometry" />
        </mxCell>
        <mxCell id="pyckKOF9ap4SfNoBUBwz-42" value="&lt;h1&gt;&lt;font style=&quot;font-size: 14px;&quot;&gt;Prometheus&lt;/font&gt;&lt;/h1&gt;&lt;p&gt;&lt;font style=&quot;font-size: 12px;&quot;&gt;Ops Metrics, Alerting rules&amp;nbsp;&lt;/font&gt;&lt;/p&gt;" style="text;html=1;spacing=5;spacingTop=-20;whiteSpace=wrap;overflow=hidden;rounded=0;" vertex="1" parent="pyckKOF9ap4SfNoBUBwz-26">
          <mxGeometry x="130" y="64" width="190" height="120" as="geometry" />
        </mxCell>
        <mxCell id="pyckKOF9ap4SfNoBUBwz-41" value="&lt;h1&gt;&lt;span style=&quot;font-size: 14px;&quot;&gt;Elasticsearch&lt;/span&gt;&lt;/h1&gt;&lt;p&gt;&lt;font style=&quot;font-size: 12px;&quot;&gt;Logs, and Search&lt;/font&gt;&lt;/p&gt;" style="text;html=1;spacing=5;spacingTop=-20;whiteSpace=wrap;overflow=hidden;rounded=0;" vertex="1" parent="pyckKOF9ap4SfNoBUBwz-26">
          <mxGeometry x="489" y="34" width="190" height="120" as="geometry" />
        </mxCell>
        <mxCell id="YQkSSXiVzBJFBjS0m_dn-53" value="&lt;h1&gt;&lt;span style=&quot;font-size: 14px;&quot;&gt;AWS SES&lt;/span&gt;&lt;/h1&gt;&lt;p&gt;&lt;font style=&quot;font-size: 12px;&quot;&gt;Weekly Emails, Billing Emails, Newsletters, Registration Emails&amp;nbsp;&lt;/font&gt;&lt;/p&gt;" style="text;html=1;spacing=5;spacingTop=-20;whiteSpace=wrap;overflow=hidden;rounded=0;" vertex="1" parent="pyckKOF9ap4SfNoBUBwz-26">
          <mxGeometry x="142" y="187" width="190" height="80" as="geometry" />
        </mxCell>
        <mxCell id="YQkSSXiVzBJFBjS0m_dn-52" value="" style="html=1;verticalLabelPosition=bottom;align=center;labelBackgroundColor=#ffffff;verticalAlign=top;strokeWidth=2;strokeColor=#0080F0;shadow=0;dashed=0;shape=mxgraph.ios7.icons.mail;" vertex="1" parent="pyckKOF9ap4SfNoBUBwz-26">
          <mxGeometry x="68" y="204" width="74" height="46" as="geometry" />
        </mxCell>
        <mxCell id="YQkSSXiVzBJFBjS0m_dn-49" value="&lt;h1 style=&quot;forced-color-adjust: none; color: rgb(0, 0, 0); font-family: Helvetica; font-style: normal; font-variant-ligatures: normal; font-variant-caps: normal; letter-spacing: normal; orphans: 2; text-align: left; text-indent: 0px; text-transform: none; widows: 2; word-spacing: 0px; -webkit-text-stroke-width: 0px; white-space: normal; background-color: rgb(255, 255, 255); text-decoration-thickness: initial; text-decoration-style: initial; text-decoration-color: initial;&quot;&gt;&lt;span style=&quot;font-size: 14px;&quot;&gt;Slack Webhook&lt;/span&gt;&lt;/h1&gt;&lt;p style=&quot;forced-color-adjust: none; color: rgb(0, 0, 0); font-family: Helvetica; font-size: 12px; font-style: normal; font-variant-ligatures: normal; font-variant-caps: normal; font-weight: 400; letter-spacing: normal; orphans: 2; text-align: left; text-indent: 0px; text-transform: none; widows: 2; word-spacing: 0px; -webkit-text-stroke-width: 0px; white-space: normal; background-color: rgb(255, 255, 255); text-decoration-thickness: initial; text-decoration-style: initial; text-decoration-color: initial;&quot;&gt;&lt;font style=&quot;forced-color-adjust: none; font-size: 12px;&quot;&gt;Daily Metrics, Alarm pagers&lt;/font&gt;&lt;/p&gt;" style="text;whiteSpace=wrap;html=1;" vertex="1" parent="pyckKOF9ap4SfNoBUBwz-26">
          <mxGeometry x="492" y="154" width="160" height="80" as="geometry" />
        </mxCell>
        <mxCell id="YQkSSXiVzBJFBjS0m_dn-36" value="" style="html=1;verticalLabelPosition=bottom;align=center;labelBackgroundColor=#ffffff;verticalAlign=top;strokeWidth=2;strokeColor=#0080F0;shadow=0;dashed=0;shape=mxgraph.ios7.icons.message;" vertex="1" parent="pyckKOF9ap4SfNoBUBwz-26">
          <mxGeometry x="428" y="187" width="60" height="44" as="geometry" />
        </mxCell>
        <mxCell id="pyckKOF9ap4SfNoBUBwz-43" value="&lt;h1&gt;&lt;span style=&quot;font-size: 14px;&quot;&gt;Kibana&lt;/span&gt;&lt;/h1&gt;&lt;p&gt;&lt;font style=&quot;font-size: 12px;&quot;&gt;Log analysis, Customer usage Analysis and monitoring,&amp;nbsp;&lt;/font&gt;&lt;/p&gt;" style="text;html=1;spacing=5;spacingTop=-20;whiteSpace=wrap;overflow=hidden;rounded=0;" vertex="1" parent="1">
          <mxGeometry x="-691" y="-634" width="190" height="120" as="geometry" />
        </mxCell>
        <mxCell id="OpU60xmc6u3N7Loq6bro-4" value="&lt;font style=&quot;font-size: 24px;&quot;&gt;&lt;b&gt;Data Layer&lt;/b&gt;&lt;/font&gt;" style="text;html=1;strokeColor=none;fillColor=none;align=center;verticalAlign=middle;whiteSpace=wrap;rounded=0;" vertex="1" parent="1">
          <mxGeometry x="-2917" y="280" width="160" height="30" as="geometry" />
        </mxCell>
        <mxCell id="Q_ABH2OroU3gbdUPUSM0-1" value="" style="group" vertex="1" connectable="0" parent="1">
          <mxGeometry x="-1830" y="-1234" width="120" height="60" as="geometry" />
        </mxCell>
        <mxCell id="Q_ABH2OroU3gbdUPUSM0-2" value="" style="whiteSpace=wrap;html=1;verticalAlign=top;strokeColor=#c0c0c0;labelBackgroundColor=#ffffff;shadow=0;dashed=0;strokeWidth=1;" vertex="1" parent="Q_ABH2OroU3gbdUPUSM0-1">
          <mxGeometry width="120" height="60" as="geometry" />
        </mxCell>
        <mxCell id="Q_ABH2OroU3gbdUPUSM0-3" value="&lt;font style=&quot;font-size: 18px;&quot;&gt;User Mgmt&lt;/font&gt;" style="text;html=1;strokeColor=none;fillColor=none;align=center;verticalAlign=middle;whiteSpace=wrap;rounded=0;" vertex="1" parent="Q_ABH2OroU3gbdUPUSM0-1">
          <mxGeometry width="120" height="60" as="geometry" />
        </mxCell>
        <mxCell id="voIu3GPFMe8vYq-QdKrB-48" value="AgriTech" style="sketch=0;outlineConnect=0;fontColor=#232F3E;gradientColor=none;strokeColor=#232F3E;fillColor=#ffffff;dashed=0;verticalLabelPosition=bottom;verticalAlign=top;align=center;html=1;fontSize=12;fontStyle=0;aspect=fixed;shape=mxgraph.aws4.resourceIcon;resIcon=mxgraph.aws4.message;" vertex="1" parent="1">
          <mxGeometry x="-1560" y="-860" width="60" height="60" as="geometry" />
        </mxCell>
        <mxCell id="OpU60xmc6u3N7Loq6bro-62" value="Sports" style="sketch=0;outlineConnect=0;fontColor=#232F3E;gradientColor=none;strokeColor=#232F3E;fillColor=#ffffff;dashed=0;verticalLabelPosition=bottom;verticalAlign=top;align=center;html=1;fontSize=12;fontStyle=0;aspect=fixed;shape=mxgraph.aws4.resourceIcon;resIcon=mxgraph.aws4.message;" vertex="1" parent="1">
          <mxGeometry x="-1640" y="-860" width="60" height="60" as="geometry" />
        </mxCell>
        <mxCell id="YQkSSXiVzBJFBjS0m_dn-5" value="" style="group" connectable="0" vertex="1" parent="1">
          <mxGeometry x="-1710" y="-1234" width="120" height="60" as="geometry" />
        </mxCell>
        <mxCell id="YQkSSXiVzBJFBjS0m_dn-6" value="" style="whiteSpace=wrap;html=1;verticalAlign=top;strokeColor=#c0c0c0;labelBackgroundColor=#ffffff;shadow=0;dashed=0;strokeWidth=1;" vertex="1" parent="YQkSSXiVzBJFBjS0m_dn-5">
          <mxGeometry width="120" height="60" as="geometry" />
        </mxCell>
        <mxCell id="YQkSSXiVzBJFBjS0m_dn-7" value="&lt;font style=&quot;font-size: 18px;&quot;&gt;Cloudfront&lt;/font&gt;&lt;div&gt;&lt;font style=&quot;font-size: 18px;&quot;&gt;/WAF&lt;/font&gt;&lt;/div&gt;" style="text;html=1;strokeColor=none;fillColor=none;align=center;verticalAlign=middle;whiteSpace=wrap;rounded=0;" vertex="1" parent="YQkSSXiVzBJFBjS0m_dn-5">
          <mxGeometry width="120" height="60" as="geometry" />
        </mxCell>
        <mxCell id="YQkSSXiVzBJFBjS0m_dn-8" value="&lt;span style=&quot;background-color: rgb(251, 251, 251);&quot;&gt;&lt;font style=&quot;font-size: 18px;&quot;&gt;Project Admin&lt;/font&gt;&lt;/span&gt;" style="rounded=1;whiteSpace=wrap;html=1;" vertex="1" parent="1">
          <mxGeometry x="-2204" y="-425" width="144" height="45" as="geometry" />
        </mxCell>
        <mxCell id="YQkSSXiVzBJFBjS0m_dn-9" value="&lt;span style=&quot;background-color: rgb(251, 251, 251);&quot;&gt;&lt;font style=&quot;font-size: 18px;&quot;&gt;Deploy Admin&lt;/font&gt;&lt;/span&gt;" style="rounded=1;whiteSpace=wrap;html=1;" vertex="1" parent="1">
          <mxGeometry x="-2204" y="-380" width="144" height="45" as="geometry" />
        </mxCell>
        <mxCell id="YQkSSXiVzBJFBjS0m_dn-10" value="&lt;span style=&quot;background-color: rgb(251, 251, 251);&quot;&gt;&lt;font style=&quot;font-size: 18px;&quot;&gt;User Admin&lt;/font&gt;&lt;/span&gt;" style="rounded=1;whiteSpace=wrap;html=1;" vertex="1" parent="1">
          <mxGeometry x="-2204" y="-335" width="144" height="45" as="geometry" />
        </mxCell>
        <mxCell id="YQkSSXiVzBJFBjS0m_dn-11" value="&lt;span style=&quot;background-color: rgb(251, 251, 251);&quot;&gt;&lt;font style=&quot;font-size: 18px;&quot;&gt;Payment/Pricing&lt;/font&gt;&lt;/span&gt;" style="rounded=1;whiteSpace=wrap;html=1;" vertex="1" parent="1">
          <mxGeometry x="-2204" y="-290" width="144" height="45" as="geometry" />
        </mxCell>
        <mxCell id="YQkSSXiVzBJFBjS0m_dn-12" value="" style="group" connectable="0" vertex="1" parent="1">
          <mxGeometry x="-1590" y="-1234" width="120" height="60" as="geometry" />
        </mxCell>
        <mxCell id="YQkSSXiVzBJFBjS0m_dn-13" value="" style="whiteSpace=wrap;html=1;verticalAlign=top;strokeColor=#c0c0c0;labelBackgroundColor=#ffffff;shadow=0;dashed=0;strokeWidth=1;" vertex="1" parent="YQkSSXiVzBJFBjS0m_dn-12">
          <mxGeometry width="120" height="60" as="geometry" />
        </mxCell>
        <mxCell id="YQkSSXiVzBJFBjS0m_dn-14" value="&lt;span style=&quot;font-size: 18px;&quot;&gt;AWS Cognito&lt;/span&gt;" style="text;html=1;strokeColor=none;fillColor=none;align=center;verticalAlign=middle;whiteSpace=wrap;rounded=0;" vertex="1" parent="YQkSSXiVzBJFBjS0m_dn-12">
          <mxGeometry width="120" height="60" as="geometry" />
        </mxCell>
        <mxCell id="YQkSSXiVzBJFBjS0m_dn-15" value="&lt;font style=&quot;font-size: 24px;&quot;&gt;&lt;b style=&quot;&quot;&gt;Jenkins&lt;/b&gt;&lt;/font&gt;" style="Square;whiteSpace=wrap;html=1;fillColor=#ffe6cc;strokeColor=#d79b00;" vertex="1" parent="1">
          <mxGeometry x="-3360" y="-900" width="150" height="100" as="geometry" />
        </mxCell>
        <mxCell id="YQkSSXiVzBJFBjS0m_dn-16" value="Static Tests, Security Tests&lt;br&gt;Packaging Agents&lt;div&gt;&lt;br/&gt;&lt;/div&gt;" style="text;html=1;align=left;verticalAlign=middle;whiteSpace=wrap;rounded=0;" vertex="1" parent="1">
          <mxGeometry x="-3312" y="-780" width="190" height="30" as="geometry" />
        </mxCell>
        <mxCell id="YQkSSXiVzBJFBjS0m_dn-33" value="" style="group" connectable="0" vertex="1" parent="1">
          <mxGeometry x="-1560" y="-1066.25" width="252" height="120" as="geometry" />
        </mxCell>
        <mxCell id="YQkSSXiVzBJFBjS0m_dn-34" value="" style="sketch=0;outlineConnect=0;fontColor=#232F3E;gradientColor=none;strokeColor=#232F3E;fillColor=#ffffff;dashed=0;verticalLabelPosition=bottom;verticalAlign=top;align=center;html=1;fontSize=12;fontStyle=0;aspect=fixed;shape=mxgraph.aws4.resourceIcon;resIcon=mxgraph.aws4.nat_gateway;" vertex="1" parent="YQkSSXiVzBJFBjS0m_dn-33">
          <mxGeometry width="60" height="60" as="geometry" />
        </mxCell>
        <mxCell id="YQkSSXiVzBJFBjS0m_dn-35" value="&lt;h1&gt;&lt;span style=&quot;background-color: initial;&quot;&gt;&lt;font style=&quot;font-size: 16px;&quot;&gt;Agent Gateway&lt;/font&gt;&lt;/span&gt;&lt;br&gt;&lt;/h1&gt;&lt;div style=&quot;&quot;&gt;&lt;span style=&quot;background-color: initial;&quot;&gt;&lt;font style=&quot;font-size: 12px;&quot;&gt;API Key AuthN&lt;br&gt;Malicious actor security&lt;/font&gt;&lt;/span&gt;&lt;/div&gt;&lt;div style=&quot;&quot;&gt;&lt;span style=&quot;background-color: initial;&quot;&gt;&lt;font style=&quot;font-size: 12px;&quot;&gt;Rate Limiting&lt;/font&gt;&lt;/span&gt;&lt;/div&gt;&lt;div style=&quot;&quot;&gt;&lt;span style=&quot;background-color: initial;&quot;&gt;&lt;font style=&quot;font-size: 12px;&quot;&gt;Throttling&lt;/font&gt;&lt;/span&gt;&lt;/div&gt;&lt;div&gt;&lt;span style=&quot;background-color: initial; font-size: 15px;&quot;&gt;&lt;font style=&quot;font-size: 16px;&quot;&gt;&lt;br&gt;&lt;/font&gt;&lt;/span&gt;&lt;/div&gt;" style="text;html=1;strokeColor=none;fillColor=none;spacing=5;spacingTop=-20;whiteSpace=wrap;overflow=hidden;rounded=0;" vertex="1" parent="YQkSSXiVzBJFBjS0m_dn-33">
          <mxGeometry x="62" width="190" height="120" as="geometry" />
        </mxCell>
        <mxCell id="YQkSSXiVzBJFBjS0m_dn-54" value="&lt;h1 style=&quot;margin-top: 0px;&quot;&gt;&lt;font style=&quot;font-size: 36px;&quot;&gt;Security Aspects&lt;/font&gt;&lt;/h1&gt;&lt;p&gt;&lt;font style=&quot;font-size: 18px;&quot;&gt;- Secured cookies with expire timeout and samesite strict mode&lt;/font&gt;&lt;/p&gt;&lt;p&gt;&lt;font style=&quot;font-size: 18px;&quot;&gt;- Origin header and referer header check&lt;/font&gt;&lt;/p&gt;&lt;p&gt;&lt;font style=&quot;font-size: 18px;&quot;&gt;- Sec-Fetch-Site header check&lt;/font&gt;&lt;/p&gt;&lt;p&gt;&lt;font size=&quot;3&quot;&gt;- Sec-Fetch-Dest header check&lt;/font&gt;&lt;/p&gt;&lt;p&gt;&lt;font size=&quot;3&quot;&gt;- App ID validation&lt;/font&gt;&lt;/p&gt;&lt;p&gt;&lt;font size=&quot;3&quot;&gt;- Access token validation&lt;/font&gt;&lt;/p&gt;&lt;p&gt;&lt;font size=&quot;3&quot;&gt;- App access validation&lt;/font&gt;&lt;/p&gt;&lt;p&gt;&lt;font size=&quot;3&quot;&gt;- Access token validation&lt;br&gt;&lt;/font&gt;&lt;/p&gt;&lt;p&gt;&lt;font size=&quot;3&quot;&gt;- Predict API is authenticated and authorised using JWT tokens&lt;/font&gt;&lt;/p&gt;&lt;p&gt;&lt;font size=&quot;3&quot;&gt;- proxy API are exposed using API gateway, internal APIs that are used for streamlit environment and frontend environment are not exposed publicly&lt;/font&gt;&lt;/p&gt;&lt;p&gt;&lt;font size=&quot;3&quot;&gt;- The Authorisation of models in Model Gateway will allow only the listed models to be called from app.&lt;/font&gt;&lt;/p&gt;&lt;p&gt;&lt;font size=&quot;3&quot;&gt;- The Apps and Models themselves have RBAC Authorisation checks in Model Gateway so that private Apps/Models are not available publicly to other users than owner.&lt;/font&gt;&lt;/p&gt;&lt;p&gt;&lt;font size=&quot;3&quot;&gt;- Circuit breakers are set at python Vipas SDK to break overwhelming failure retries if any.&lt;/font&gt;&lt;/p&gt;&lt;p&gt;&lt;font size=&quot;3&quot;&gt;-&amp;nbsp; Rate-limit is set to 60 rps per user to prevent DDOS attacks&lt;/font&gt;&lt;/p&gt;&lt;p&gt;&lt;font size=&quot;3&quot;&gt;- Prevent SQL injections&lt;br&gt;- DDOS protection at AWS API Gateway&lt;br&gt;- Throttling based on traffic and malicious IPs at AWS API Gateway and WAF&lt;br&gt;&lt;/font&gt;&lt;span style=&quot;font-size: medium; background-color: transparent; color: light-dark(rgb(0, 0, 0), rgb(255, 255, 255));&quot;&gt;Zero-Trust Architecture for AI APIs (Ensuring No AI Model Exposure Without Authorization)&lt;/span&gt;&lt;/p&gt;&lt;p class=&quot;p1&quot;&gt;&lt;font size=&quot;3&quot;&gt;-Encryption of Model Checkpoints &amp;amp; Payloads (TLS in Transit, AES-256 at Rest)&lt;/font&gt;&lt;/p&gt;&lt;p class=&quot;p1&quot;&gt;&lt;font size=&quot;3&quot;&gt;-Data Residency Compliance (Ensuring AI Models &amp;amp; Predictions Stay in the User&#39;&lt;span class=&quot;s1&quot;&gt;s Region)&lt;br&gt;&lt;/span&gt;&lt;/font&gt;&lt;/p&gt;&lt;div&gt;&lt;span style=&quot;background-color: transparent; color: light-dark(rgb(0, 0, 0), rgb(255, 255, 255));&quot;&gt;&lt;font size=&quot;3&quot;&gt;- Fine-Grained Model Access Controls (Role-Based AI Model Invocation Policies)&lt;/font&gt;&lt;/span&gt;&lt;/div&gt;&lt;div&gt;&lt;font size=&quot;3&quot;&gt;-End-to-End Request Logging &amp;amp; Tracing (Distributed Logging through Filebeat, ElasticSearch )&lt;/font&gt;&lt;/div&gt;&lt;div&gt;&lt;font size=&quot;3&quot;&gt;- Secure AI Model Isolation (Each User&#39;s Model Runs in Isolated pods with no root-access, firewall within AWS VPC of that EKS cluster, and no internet exposure)&lt;/font&gt;&lt;/div&gt;&lt;div&gt;&lt;span style=&quot;font-size: medium; background-color: transparent; color: light-dark(rgb(0, 0, 0), rgb(255, 255, 255));&quot;&gt;- Encryption of Model Checkpoints &amp;amp; Payloads (TLS in Transit, AES-256 at Rest)&lt;/span&gt;&lt;/div&gt;&lt;div&gt;&lt;br&gt;&lt;/div&gt;" style="text;html=1;whiteSpace=wrap;overflow=hidden;rounded=0;" vertex="1" parent="1">
          <mxGeometry x="-3660" y="980" width="800" height="1200" as="geometry" />
        </mxCell>
        <mxCell id="YQkSSXiVzBJFBjS0m_dn-55" value="&lt;span id=&quot;docs-internal-guid-faa2f3d4-7fff-6745-530f-665288d56bc2&quot;&gt;&lt;ol style=&quot;margin-top:0;margin-bottom:0;padding-inline-start:48px;&quot;&gt;&lt;font style=&quot;font-size: 18px;&quot;&gt;&lt;li aria-level=&quot;1&quot; style=&quot;list-style-type: decimal; font-family: Arial, sans-serif; background-color: transparent; font-variant-numeric: normal; font-variant-east-asian: normal; font-variant-alternates: normal; font-variant-position: normal; font-variant-emoji: normal; vertical-align: baseline; white-space: pre;&quot; dir=&quot;ltr&quot;&gt;&lt;p role=&quot;presentation&quot; style=&quot;line-height: 1.38; margin-top: 0pt; margin-bottom: 0pt;&quot; dir=&quot;ltr&quot;&gt;&lt;span style=&quot;background-color: transparent; font-variant-numeric: normal; font-variant-east-asian: normal; font-variant-alternates: normal; font-variant-position: normal; font-variant-emoji: normal; vertical-align: baseline; text-wrap-mode: wrap;&quot;&gt;Route 53 A record are configured with the ACM for HTTPS connection&lt;/span&gt;&lt;/p&gt;&lt;/li&gt;&lt;li aria-level=&quot;1&quot; style=&quot;list-style-type: decimal; font-family: Arial, sans-serif; background-color: transparent; font-variant-numeric: normal; font-variant-east-asian: normal; font-variant-alternates: normal; font-variant-position: normal; font-variant-emoji: normal; vertical-align: baseline; white-space: pre;&quot; dir=&quot;ltr&quot;&gt;&lt;p role=&quot;presentation&quot; style=&quot;line-height:1.38;margin-top:0pt;margin-bottom:0pt;&quot; dir=&quot;ltr&quot;&gt;&lt;span style=&quot;background-color: transparent; font-variant-numeric: normal; font-variant-east-asian: normal; font-variant-alternates: normal; font-variant-position: normal; font-variant-emoji: normal; vertical-align: baseline; text-wrap-mode: wrap;&quot;&gt;ACM certificate is configured with self renewal setting&lt;/span&gt;&lt;/p&gt;&lt;/li&gt;&lt;li aria-level=&quot;1&quot; style=&quot;list-style-type: decimal; font-family: Arial, sans-serif; background-color: transparent; font-variant-numeric: normal; font-variant-east-asian: normal; font-variant-alternates: normal; font-variant-position: normal; font-variant-emoji: normal; vertical-align: baseline; white-space: pre;&quot; dir=&quot;ltr&quot;&gt;&lt;p role=&quot;presentation&quot; style=&quot;line-height:1.38;margin-top:0pt;margin-bottom:0pt;&quot; dir=&quot;ltr&quot;&gt;&lt;span style=&quot;background-color: transparent; font-variant-numeric: normal; font-variant-east-asian: normal; font-variant-alternates: normal; font-variant-position: normal; font-variant-emoji: normal; vertical-align: baseline; text-wrap-mode: wrap;&quot;&gt;All the external ALB are configured with ACM certificate, and with minimal api exposure for the end user.&lt;/span&gt;&lt;/p&gt;&lt;/li&gt;&lt;li aria-level=&quot;1&quot; style=&quot;list-style-type: decimal; font-family: Arial, sans-serif; background-color: transparent; font-variant-numeric: normal; font-variant-east-asian: normal; font-variant-alternates: normal; font-variant-position: normal; font-variant-emoji: normal; vertical-align: baseline; white-space: pre;&quot; dir=&quot;ltr&quot;&gt;&lt;p role=&quot;presentation&quot; style=&quot;line-height:1.38;margin-top:0pt;margin-bottom:0pt;&quot; dir=&quot;ltr&quot;&gt;&lt;span style=&quot;background-color: transparent; font-variant-numeric: normal; font-variant-east-asian: normal; font-variant-alternates: normal; font-variant-position: normal; font-variant-emoji: normal; vertical-align: baseline; text-wrap-mode: wrap;&quot;&gt;API gateway are configured for both public and private communication for external and internal users.&lt;/span&gt;&lt;/p&gt;&lt;/li&gt;&lt;li aria-level=&quot;1&quot; style=&quot;list-style-type: decimal; font-family: Arial, sans-serif; background-color: transparent; font-variant-numeric: normal; font-variant-east-asian: normal; font-variant-alternates: normal; font-variant-position: normal; font-variant-emoji: normal; vertical-align: baseline; white-space: pre;&quot; dir=&quot;ltr&quot;&gt;&lt;p role=&quot;presentation&quot; style=&quot;line-height:1.38;margin-top:0pt;margin-bottom:0pt;&quot; dir=&quot;ltr&quot;&gt;&lt;span style=&quot;background-color: transparent; font-variant-numeric: normal; font-variant-east-asian: normal; font-variant-alternates: normal; font-variant-position: normal; font-variant-emoji: normal; vertical-align: baseline; text-wrap-mode: wrap;&quot;&gt;API gateway is using the internal NLB, with VPC link, so that communication remains within the AWS boundaries.&lt;/span&gt;&lt;/p&gt;&lt;/li&gt;&lt;li aria-level=&quot;1&quot; style=&quot;list-style-type: decimal; font-family: Arial, sans-serif; background-color: transparent; font-variant-numeric: normal; font-variant-east-asian: normal; font-variant-alternates: normal; font-variant-position: normal; font-variant-emoji: normal; vertical-align: baseline; white-space: pre;&quot; dir=&quot;ltr&quot;&gt;&lt;p role=&quot;presentation&quot; style=&quot;line-height:1.38;margin-top:0pt;margin-bottom:0pt;&quot; dir=&quot;ltr&quot;&gt;&lt;span style=&quot;background-color: transparent; font-variant-numeric: normal; font-variant-east-asian: normal; font-variant-alternates: normal; font-variant-position: normal; font-variant-emoji: normal; vertical-align: baseline; text-wrap-mode: wrap;&quot;&gt;WAF ACL are set up on all the API gateway and ALB, with rate limiting and IP set rules, with request monitoring.&lt;/span&gt;&lt;/p&gt;&lt;/li&gt;&lt;li aria-level=&quot;1&quot; style=&quot;list-style-type: decimal; font-family: Arial, sans-serif; background-color: transparent; font-variant-numeric: normal; font-variant-east-asian: normal; font-variant-alternates: normal; font-variant-position: normal; font-variant-emoji: normal; vertical-align: baseline; white-space: pre;&quot; dir=&quot;ltr&quot;&gt;&lt;p role=&quot;presentation&quot; style=&quot;line-height:1.38;margin-top:0pt;margin-bottom:0pt;&quot; dir=&quot;ltr&quot;&gt;&lt;span style=&quot;background-color: transparent; font-variant-numeric: normal; font-variant-east-asian: normal; font-variant-alternates: normal; font-variant-position: normal; font-variant-emoji: normal; vertical-align: baseline; text-wrap-mode: wrap;&quot;&gt;For payment webhook, only razorpay web IP’s can call the api gateway for payment confirmation.&lt;/span&gt;&lt;/p&gt;&lt;/li&gt;&lt;li aria-level=&quot;1&quot; style=&quot;list-style-type: decimal; font-family: Arial, sans-serif; background-color: transparent; font-variant-numeric: normal; font-variant-east-asian: normal; font-variant-alternates: normal; font-variant-position: normal; font-variant-emoji: normal; vertical-align: baseline; white-space: pre;&quot; dir=&quot;ltr&quot;&gt;&lt;p role=&quot;presentation&quot; style=&quot;line-height:1.38;margin-top:0pt;margin-bottom:0pt;&quot; dir=&quot;ltr&quot;&gt;&lt;span style=&quot;background-color: transparent; font-variant-numeric: normal; font-variant-east-asian: normal; font-variant-alternates: normal; font-variant-position: normal; font-variant-emoji: normal; vertical-align: baseline; text-wrap-mode: wrap;&quot;&gt;EKS cluster has a private endpoint access, so that no one can kubectl into the cluster outside the VPC boundary.&lt;/span&gt;&lt;/p&gt;&lt;/li&gt;&lt;li aria-level=&quot;1&quot; style=&quot;list-style-type: decimal; font-family: Arial, sans-serif; background-color: transparent; font-variant-numeric: normal; font-variant-east-asian: normal; font-variant-alternates: normal; font-variant-position: normal; font-variant-emoji: normal; vertical-align: baseline; white-space: pre;&quot; dir=&quot;ltr&quot;&gt;&lt;p role=&quot;presentation&quot; style=&quot;line-height:1.38;margin-top:0pt;margin-bottom:0pt;&quot; dir=&quot;ltr&quot;&gt;&lt;span style=&quot;background-color: transparent; font-variant-numeric: normal; font-variant-east-asian: normal; font-variant-alternates: normal; font-variant-position: normal; font-variant-emoji: normal; vertical-align: baseline; text-wrap-mode: wrap;&quot;&gt;VPC endpoints are set up for necessary communication between the VPC and aws resources so that the communication remains within the aws boundary and also it decreases the latency.&lt;/span&gt;&lt;/p&gt;&lt;/li&gt;&lt;li aria-level=&quot;1&quot; style=&quot;list-style-type: decimal; font-family: Arial, sans-serif; background-color: transparent; font-variant-numeric: normal; font-variant-east-asian: normal; font-variant-alternates: normal; font-variant-position: normal; font-variant-emoji: normal; vertical-align: baseline; white-space: pre;&quot; dir=&quot;ltr&quot;&gt;&lt;p role=&quot;presentation&quot; style=&quot;line-height:1.38;margin-top:0pt;margin-bottom:0pt;&quot; dir=&quot;ltr&quot;&gt;&lt;span style=&quot;background-color: transparent; font-variant-numeric: normal; font-variant-east-asian: normal; font-variant-alternates: normal; font-variant-position: normal; font-variant-emoji: normal; vertical-align: baseline; text-wrap-mode: wrap;&quot;&gt;Ops box is set up for maintenance and monitoring, with security group developer ip inbound only.&lt;/span&gt;&lt;/p&gt;&lt;/li&gt;&lt;li aria-level=&quot;1&quot; style=&quot;list-style-type: decimal; font-family: Arial, sans-serif; background-color: transparent; font-variant-numeric: normal; font-variant-east-asian: normal; font-variant-alternates: normal; font-variant-position: normal; font-variant-emoji: normal; vertical-align: baseline; white-space: pre;&quot; dir=&quot;ltr&quot;&gt;&lt;p role=&quot;presentation&quot; style=&quot;line-height:1.38;margin-top:0pt;margin-bottom:0pt;&quot; dir=&quot;ltr&quot;&gt;&lt;span style=&quot;background-color: transparent; font-variant-numeric: normal; font-variant-east-asian: normal; font-variant-alternates: normal; font-variant-position: normal; font-variant-emoji: normal; vertical-align: baseline; text-wrap-mode: wrap;&quot;&gt;&amp;nbsp;Each pod in the EKS uses dynamic credentials of the IAM using the serviceaccount with minimal permissions.&lt;/span&gt;&lt;/p&gt;&lt;/li&gt;&lt;li aria-level=&quot;1&quot; style=&quot;list-style-type: decimal; font-family: Arial, sans-serif; background-color: transparent; font-variant-numeric: normal; font-variant-east-asian: normal; font-variant-alternates: normal; font-variant-position: normal; font-variant-emoji: normal; vertical-align: baseline; white-space: pre;&quot; dir=&quot;ltr&quot;&gt;&lt;p role=&quot;presentation&quot; style=&quot;line-height:1.38;margin-top:0pt;margin-bottom:0pt;&quot; dir=&quot;ltr&quot;&gt;&lt;span style=&quot;background-color: transparent; font-variant-numeric: normal; font-variant-east-asian: normal; font-variant-alternates: normal; font-variant-position: normal; font-variant-emoji: normal; vertical-align: baseline; text-wrap-mode: wrap;&quot;&gt;Each IAM used in the serviceaccount has only minimal policy permission given.&lt;/span&gt;&lt;/p&gt;&lt;/li&gt;&lt;li aria-level=&quot;1&quot; style=&quot;list-style-type: decimal; font-family: Arial, sans-serif; background-color: transparent; font-variant-numeric: normal; font-variant-east-asian: normal; font-variant-alternates: normal; font-variant-position: normal; font-variant-emoji: normal; vertical-align: baseline; white-space: pre;&quot; dir=&quot;ltr&quot;&gt;&lt;p role=&quot;presentation&quot; style=&quot;line-height:1.38;margin-top:0pt;margin-bottom:0pt;&quot; dir=&quot;ltr&quot;&gt;&lt;span style=&quot;background-color: transparent; font-variant-numeric: normal; font-variant-east-asian: normal; font-variant-alternates: normal; font-variant-position: normal; font-variant-emoji: normal; vertical-align: baseline; text-wrap-mode: wrap;&quot;&gt;Each pod in the EKS has minimal rbac depending on the usage.&lt;/span&gt;&lt;/p&gt;&lt;/li&gt;&lt;li aria-level=&quot;1&quot; style=&quot;list-style-type: decimal; font-family: Arial, sans-serif; background-color: transparent; font-variant-numeric: normal; font-variant-east-asian: normal; font-variant-alternates: normal; font-variant-position: normal; font-variant-emoji: normal; vertical-align: baseline; white-space: pre;&quot; dir=&quot;ltr&quot;&gt;&lt;p role=&quot;presentation&quot; style=&quot;line-height:1.38;margin-top:0pt;margin-bottom:0pt;&quot; dir=&quot;ltr&quot;&gt;&lt;span style=&quot;background-color: transparent; font-variant-numeric: normal; font-variant-east-asian: normal; font-variant-alternates: normal; font-variant-position: normal; font-variant-emoji: normal; vertical-align: baseline; text-wrap-mode: wrap;&quot;&gt;Postgres db has schema based users with minimal permissions.&lt;/span&gt;&lt;/p&gt;&lt;/li&gt;&lt;li aria-level=&quot;1&quot; style=&quot;list-style-type: decimal; font-family: Arial, sans-serif; background-color: transparent; font-variant-numeric: normal; font-variant-east-asian: normal; font-variant-alternates: normal; font-variant-position: normal; font-variant-emoji: normal; vertical-align: baseline; white-space: pre;&quot; dir=&quot;ltr&quot;&gt;&lt;p role=&quot;presentation&quot; style=&quot;line-height:1.38;margin-top:0pt;margin-bottom:0pt;&quot; dir=&quot;ltr&quot;&gt;&lt;span style=&quot;background-color: transparent; font-variant-numeric: normal; font-variant-east-asian: normal; font-variant-alternates: normal; font-variant-position: normal; font-variant-emoji: normal; vertical-align: baseline; text-wrap-mode: wrap;&quot;&gt;Each pod in the EKS, has the request and CPU limit so that it doesn&#39;t take the whole resources&lt;/span&gt;&lt;/p&gt;&lt;/li&gt;&lt;li aria-level=&quot;1&quot; style=&quot;list-style-type: decimal; font-family: Arial, sans-serif; background-color: transparent; font-variant-numeric: normal; font-variant-east-asian: normal; font-variant-alternates: normal; font-variant-position: normal; font-variant-emoji: normal; vertical-align: baseline; white-space: pre;&quot; dir=&quot;ltr&quot;&gt;&lt;p role=&quot;presentation&quot; style=&quot;line-height:1.38;margin-top:0pt;margin-bottom:0pt;&quot; dir=&quot;ltr&quot;&gt;&lt;span style=&quot;background-color: transparent; font-variant-numeric: normal; font-variant-east-asian: normal; font-variant-alternates: normal; font-variant-position: normal; font-variant-emoji: normal; vertical-align: baseline; text-wrap-mode: wrap;&quot;&gt;For deploy manager service, which spin up knative and kserve pod, has rbac(Role based access control) with minimal permissions.&lt;/span&gt;&lt;/p&gt;&lt;/li&gt;&lt;li aria-level=&quot;1&quot; style=&quot;list-style-type: decimal; font-family: Arial, sans-serif; background-color: transparent; font-variant-numeric: normal; font-variant-east-asian: normal; font-variant-alternates: normal; font-variant-position: normal; font-variant-emoji: normal; vertical-align: baseline; white-space: pre;&quot; dir=&quot;ltr&quot;&gt;&lt;p role=&quot;presentation&quot; style=&quot;line-height:1.38;margin-top:0pt;margin-bottom:0pt;&quot; dir=&quot;ltr&quot;&gt;&lt;span style=&quot;background-color: transparent; font-variant-numeric: normal; font-variant-east-asian: normal; font-variant-alternates: normal; font-variant-position: normal; font-variant-emoji: normal; vertical-align: baseline; text-wrap-mode: wrap;&quot;&gt;For multicluster, cluster access for non creator role, has minimal permissions for that cluster in the aws-auth using the rbac group.&lt;/span&gt;&lt;/p&gt;&lt;/li&gt;&lt;li aria-level=&quot;1&quot; style=&quot;list-style-type: decimal; font-family: Arial, sans-serif; background-color: transparent; font-variant-numeric: normal; font-variant-east-asian: normal; font-variant-alternates: normal; font-variant-position: normal; font-variant-emoji: normal; vertical-align: baseline; white-space: pre;&quot; dir=&quot;ltr&quot;&gt;&lt;p role=&quot;presentation&quot; style=&quot;line-height:1.38;margin-top:0pt;margin-bottom:0pt;&quot; dir=&quot;ltr&quot;&gt;&lt;span style=&quot;background-color: transparent; font-variant-numeric: normal; font-variant-east-asian: normal; font-variant-alternates: normal; font-variant-position: normal; font-variant-emoji: normal; vertical-align: baseline; text-wrap-mode: wrap;&quot;&gt;Security group Inbound rules are set up in between the clusters , to control the access.&lt;/span&gt;&lt;/p&gt;&lt;/li&gt;&lt;li aria-level=&quot;1&quot; style=&quot;list-style-type: decimal; font-family: Arial, sans-serif; background-color: transparent; font-variant-numeric: normal; font-variant-east-asian: normal; font-variant-alternates: normal; font-variant-position: normal; font-variant-emoji: normal; vertical-align: baseline; white-space: pre;&quot; dir=&quot;ltr&quot;&gt;&lt;p role=&quot;presentation&quot; style=&quot;line-height:1.38;margin-top:0pt;margin-bottom:0pt;&quot; dir=&quot;ltr&quot;&gt;&lt;span style=&quot;background-color: transparent; font-variant-numeric: normal; font-variant-east-asian: normal; font-variant-alternates: normal; font-variant-position: normal; font-variant-emoji: normal; vertical-align: baseline; text-wrap-mode: wrap;&quot;&gt;Rate limits are set up for prediction calls, so that users can&#39;t do DDOS attacks.&amp;nbsp;&lt;/span&gt;&lt;/p&gt;&lt;/li&gt;&lt;li aria-level=&quot;1&quot; style=&quot;list-style-type: decimal; font-family: Arial, sans-serif; background-color: transparent; font-variant-numeric: normal; font-variant-east-asian: normal; font-variant-alternates: normal; font-variant-position: normal; font-variant-emoji: normal; vertical-align: baseline; white-space: pre;&quot; dir=&quot;ltr&quot;&gt;&lt;p role=&quot;presentation&quot; style=&quot;line-height:1.38;margin-top:0pt;margin-bottom:0pt;&quot; dir=&quot;ltr&quot;&gt;&lt;span style=&quot;background-color: transparent; font-variant-numeric: normal; font-variant-east-asian: normal; font-variant-alternates: normal; font-variant-position: normal; font-variant-emoji: normal; vertical-align: baseline; text-wrap-mode: wrap;&quot;&gt;Network CNI are set up for knative and kserve pods, which has the end user script, so that only minimal ingress and egress are allowed to this pod, as this can contain malicious code for sure.&lt;/span&gt;&lt;/p&gt;&lt;/li&gt;&lt;li aria-level=&quot;1&quot; style=&quot;list-style-type: decimal; font-family: Arial, sans-serif; background-color: transparent; font-variant-numeric: normal; font-variant-east-asian: normal; font-variant-alternates: normal; font-variant-position: normal; font-variant-emoji: normal; vertical-align: baseline; white-space: pre;&quot; dir=&quot;ltr&quot;&gt;&lt;p role=&quot;presentation&quot; style=&quot;line-height:1.38;margin-top:0pt;margin-bottom:0pt;&quot; dir=&quot;ltr&quot;&gt;&lt;span style=&quot;background-color: transparent; font-variant-numeric: normal; font-variant-east-asian: normal; font-variant-alternates: normal; font-variant-position: normal; font-variant-emoji: normal; vertical-align: baseline; text-wrap-mode: wrap;&quot;&gt;Added bandit test and pylint test for checking of the user code, for malicious action.&lt;/span&gt;&lt;/p&gt;&lt;/li&gt;&lt;li aria-level=&quot;1&quot; style=&quot;list-style-type: decimal; font-family: Arial, sans-serif; background-color: transparent; font-variant-numeric: normal; font-variant-east-asian: normal; font-variant-alternates: normal; font-variant-position: normal; font-variant-emoji: normal; vertical-align: baseline; white-space: pre;&quot; dir=&quot;ltr&quot;&gt;&lt;p role=&quot;presentation&quot; style=&quot;line-height:1.38;margin-top:0pt;margin-bottom:0pt;&quot; dir=&quot;ltr&quot;&gt;&lt;span style=&quot;background-color: transparent; font-variant-numeric: normal; font-variant-east-asian: normal; font-variant-alternates: normal; font-variant-position: normal; font-variant-emoji: normal; vertical-align: baseline; text-wrap-mode: wrap;&quot;&gt;DNSSEC and trust chain in the vipas.dev domain.&lt;/span&gt;&lt;/p&gt;&lt;/li&gt;&lt;li aria-level=&quot;1&quot; style=&quot;list-style-type: decimal; font-family: Arial, sans-serif; background-color: transparent; font-variant-numeric: normal; font-variant-east-asian: normal; font-variant-alternates: normal; font-variant-position: normal; font-variant-emoji: normal; vertical-align: baseline; white-space: pre;&quot; dir=&quot;ltr&quot;&gt;&lt;p role=&quot;presentation&quot; style=&quot;line-height:1.38;margin-top:0pt;margin-bottom:0pt;&quot; dir=&quot;ltr&quot;&gt;&lt;span style=&quot;background-color: transparent; font-variant-numeric: normal; font-variant-east-asian: normal; font-variant-alternates: normal; font-variant-position: normal; font-variant-emoji: normal; vertical-align: baseline; text-wrap-mode: wrap;&quot;&gt;Fine grain bucket policy for the master bucket.&lt;/span&gt;&lt;/p&gt;&lt;/li&gt;&lt;li aria-level=&quot;1&quot; style=&quot;list-style-type: decimal; font-family: Arial, sans-serif; background-color: transparent; font-variant-numeric: normal; font-variant-east-asian: normal; font-variant-alternates: normal; font-variant-position: normal; font-variant-emoji: normal; vertical-align: baseline; white-space: pre;&quot; dir=&quot;ltr&quot;&gt;&lt;p role=&quot;presentation&quot; style=&quot;line-height: 1.38; margin-top: 0pt; margin-bottom: 0pt;&quot; dir=&quot;ltr&quot;&gt;&lt;span style=&quot;background-color: transparent; font-variant-numeric: normal; font-variant-east-asian: normal; font-variant-alternates: normal; font-variant-position: normal; font-variant-emoji: normal; vertical-align: baseline; text-wrap-mode: wrap;&quot;&gt;Lifecycle policy for the log and runtime bucket so that the cost is reduced.&lt;/span&gt;&lt;/p&gt;&lt;/li&gt;&lt;/font&gt;&lt;/ol&gt;&lt;/span&gt;" style="text;html=1;align=left;verticalAlign=middle;whiteSpace=wrap;rounded=0;" vertex="1" parent="1">
          <mxGeometry x="-2860" y="960" width="880" height="880" as="geometry" />
        </mxCell>
        <mxCell id="YQkSSXiVzBJFBjS0m_dn-56" value="" style="group" connectable="0" vertex="1" parent="1">
          <mxGeometry x="-1830" y="-1174" width="120" height="60" as="geometry" />
        </mxCell>
        <mxCell id="YQkSSXiVzBJFBjS0m_dn-57" value="" style="whiteSpace=wrap;html=1;verticalAlign=top;strokeColor=#c0c0c0;labelBackgroundColor=#ffffff;shadow=0;dashed=0;strokeWidth=1;" vertex="1" parent="YQkSSXiVzBJFBjS0m_dn-56">
          <mxGeometry width="120" height="60" as="geometry" />
        </mxCell>
        <mxCell id="YQkSSXiVzBJFBjS0m_dn-58" value="&lt;font style=&quot;font-size: 18px;&quot;&gt;Logging/&lt;/font&gt;&lt;div&gt;&lt;font style=&quot;font-size: 18px;&quot;&gt;Tracing&lt;/font&gt;&lt;/div&gt;" style="text;html=1;strokeColor=none;fillColor=none;align=center;verticalAlign=middle;whiteSpace=wrap;rounded=0;" vertex="1" parent="YQkSSXiVzBJFBjS0m_dn-56">
          <mxGeometry width="120" height="60" as="geometry" />
        </mxCell>
        <mxCell id="YQkSSXiVzBJFBjS0m_dn-60" value="&lt;div&gt;&lt;span style=&quot;background-color: transparent; color: light-dark(rgb(0, 0, 0), rgb(255, 255, 255));&quot;&gt;&lt;font style=&quot;font-size: 18px;&quot;&gt;- Serverless AI Models, Processors and Agents (Dynamically Deploy &amp;amp; Evict Models Based on Usage)&lt;/font&gt;&lt;/span&gt;&lt;/div&gt;&lt;div&gt;&lt;font style=&quot;font-size: 18px;&quot;&gt;- Low Cold Start Latency (Dynamic Hierarchical Storage with Prefetching)&lt;/font&gt;&lt;/div&gt;&lt;div&gt;&lt;font size=&quot;3&quot;&gt;- Real-Time Traffic Analysis based on Time-series forecasting (Moves Models from Hot → Warm → Cold Storage Based on RPS)&lt;/font&gt;&lt;/div&gt;&lt;div&gt;&lt;span style=&quot;background-color: transparent; color: light-dark(rgb(0, 0, 0), rgb(255, 255, 255));&quot;&gt;&lt;font size=&quot;3&quot;&gt;- Multi-Region Model Replication (Ensuring Global Low-Latency AI Inference)&lt;/font&gt;&lt;/span&gt;&lt;/div&gt;&lt;div&gt;&lt;font size=&quot;3&quot;&gt;- Multi-Cloud Deployment (AWS, GCP, On-premise—Avoid Vendor Lock-In, improve HA, Reduce Cost)&lt;/font&gt;&lt;/div&gt;&lt;div&gt;&lt;font size=&quot;3&quot;&gt;&lt;br&gt;&lt;/font&gt;&lt;/div&gt;&lt;div&gt;&lt;font size=&quot;3&quot;&gt;- Horizontal Auto-Scaling (KServe, Kubernetes HPA, Knative AutoScaler)&lt;/font&gt;&lt;/div&gt;&lt;div&gt;&lt;font size=&quot;3&quot;&gt;- Vertical Scaling (Dynamically Increasing GPU &amp;amp; TPU Resources Per Model, Agent, Processor)&lt;/font&gt;&lt;/div&gt;&lt;div&gt;&lt;font size=&quot;3&quot;&gt;- Scale to Zero (Serverless Models Spin Down When Idle, Reactivate within seconds)&lt;/font&gt;&lt;/div&gt;&lt;div&gt;&lt;font size=&quot;3&quot;&gt;- RPS-Based Scaling in Knative (Requests Per Second-Driven AI Model Scaling)&lt;/font&gt;&lt;/div&gt;&lt;div&gt;&lt;font size=&quot;3&quot;&gt;- Multi-Cluster AI Model Serving (Distributes Load Across AI Serving Clusters)&lt;/font&gt;&lt;/div&gt;&lt;div&gt;&lt;font size=&quot;3&quot; style=&quot;&quot;&gt;-&amp;nbsp;&lt;span style=&quot;background-color: transparent; color: light-dark(rgb(0, 0, 0), rgb(255, 255, 255));&quot;&gt;Kubernetes Cluster Autoscaling** (Min-Max Cluster Size Based on Traffic)&lt;/span&gt;&lt;/font&gt;&lt;/div&gt;&lt;div&gt;&lt;font size=&quot;3&quot;&gt;&lt;font style=&quot;&quot;&gt;&lt;span style=&quot;background-color: transparent; color: light-dark(rgb(0, 0, 0), rgb(255, 255, 255));&quot; class=&quot;Apple-converted-space&quot;&gt;-&lt;font style=&quot;&quot;&gt;&amp;nbsp;&lt;/font&gt;&lt;/span&gt;&lt;/font&gt;&lt;span style=&quot;background-color: transparent; color: light-dark(rgb(0, 0, 0), rgb(255, 255, 255));&quot;&gt;High Availability** (HPA Enabled in Kubernetes) &lt;/span&gt;&lt;span style=&quot;background-color: transparent; color: light-dark(rgb(0, 0, 0), rgb(255, 255, 255));&quot; class=&quot;Apple-converted-space&quot;&gt;&amp;nbsp;&lt;/span&gt;&lt;span style=&quot;background-color: transparent; color: light-dark(rgb(0, 0, 0), rgb(255, 255, 255));&quot;&gt;&amp;nbsp;&lt;/span&gt;&lt;/font&gt;&lt;/div&gt;&lt;div&gt;&lt;span style=&quot;background-color: transparent; color: light-dark(rgb(0, 0, 0), rgb(255, 255, 255));&quot;&gt;&lt;font size=&quot;3&quot;&gt;- Prediction Batching (Group Similar AI Requests to Reduce Compute Overhead)&lt;/font&gt;&lt;/span&gt;&lt;/div&gt;&lt;div&gt;&lt;span style=&quot;background-color: transparent; color: light-dark(rgb(0, 0, 0), rgb(255, 255, 255));&quot;&gt;&lt;font size=&quot;3&quot;&gt;- Prediction Caching (Fast Lookup for Repetitive Queries)&lt;/font&gt;&lt;/span&gt;&lt;/div&gt;&lt;div&gt;&lt;font size=&quot;3&quot;&gt;- Real-Time Model Health Monitoring (Prometheus &amp;amp; Grafana for Tracking Latency, Errors)&lt;/font&gt;&lt;/div&gt;&lt;div&gt;&lt;font size=&quot;3&quot;&gt;- Cold Model Prefetching (Anticipating Demand &amp;amp; Loading Models Before Requests Come In)&lt;/font&gt;&lt;/div&gt;&lt;div&gt;&lt;font size=&quot;3&quot;&gt;- Hybrid Cloud-Native Load Balancing (AWS ALB + Nginx + Kourier for High Throughput)&lt;/font&gt;&lt;/div&gt;&lt;div&gt;&lt;font size=&quot;3&quot;&gt;- Self-Healing Model Instances (Auto-Restart Faulty Model Serving Pods and Virtual Machines)&lt;/font&gt;&lt;/div&gt;&lt;div&gt;&lt;br&gt;&lt;p class=&quot;p1&quot;&gt;&lt;font size=&quot;3&quot;&gt;&amp;nbsp;- Fault-Tolerant Model Deployments** (Multi-Pod Replication &lt;span class=&quot;s1&quot;&gt;for&lt;/span&gt; Redundancy)&lt;span class=&quot;Apple-converted-space&quot;&gt;&amp;nbsp;&lt;/span&gt;&lt;/font&gt;&lt;/p&gt;&lt;/div&gt;&lt;div&gt;&lt;font size=&quot;3&quot;&gt;- Fine-Grained Resource Allocation (Optimizing Memory, CPU, GPU Usage per AI Model)&lt;/font&gt;&lt;/div&gt;&lt;div&gt;&lt;font size=&quot;3&quot;&gt;- User-Based Rate Limiting ( Rate Limiting Free Users)&lt;/font&gt;&lt;/div&gt;&lt;div&gt;&lt;font size=&quot;3&quot;&gt;- Circuit Breaker at SDK Level (Preventing Request Overloads &amp;amp; Graceful Failover)&lt;/font&gt;&lt;/div&gt;&lt;div&gt;&lt;font size=&quot;3&quot;&gt;- Large Prediction Payload Optimization (Push Large AI Responses to S3 + Pre-Signed URLs)&lt;/font&gt;&lt;/div&gt;&lt;div&gt;&lt;font size=&quot;3&quot;&gt;&lt;br&gt;&lt;/font&gt;&lt;/div&gt;&lt;div&gt;&lt;span style=&quot;background-color: transparent; color: light-dark(rgb(0, 0, 0), rgb(255, 255, 255));&quot;&gt;&lt;font size=&quot;3&quot;&gt;- Distributed Model Execution with TensorRT &amp;amp; Triton Inference Server (High-Perf Inference)&lt;/font&gt;&lt;/span&gt;&lt;/div&gt;&lt;div&gt;&lt;br&gt;&lt;/div&gt;" style="text;html=1;align=left;verticalAlign=middle;whiteSpace=wrap;rounded=0;" vertex="1" parent="1">
          <mxGeometry x="-1531.5" y="900" width="840.5" height="960" as="geometry" />
        </mxCell>
        <mxCell id="YQkSSXiVzBJFBjS0m_dn-61" value="&lt;div&gt;&lt;font style=&quot;font-size: 18px;&quot;&gt;- Model Parallelism (Splitting Large AI Models Across Multiple GPUs for Faster Inference)&lt;/font&gt;&lt;/div&gt;&lt;div&gt;&lt;font size=&quot;3&quot;&gt;- Tensor Parallelism for LLMs (Partitioning Model Weights Across GPUs for High-Throughput)&lt;/font&gt;&lt;/div&gt;&lt;div&gt;&lt;font size=&quot;3&quot;&gt;- Pipeline Parallelism (Breaking LLM Execution into Pipeline Stages for Max Efficiency)&lt;/font&gt;&lt;/div&gt;&lt;div&gt;&lt;font size=&quot;3&quot;&gt;- Hybrid GPU + CPU Execution (Falling Back to CPUs When GPUs Are Fully Loaded)&lt;/font&gt;&lt;/div&gt;&lt;div&gt;&lt;font size=&quot;3&quot;&gt;- Edge AI Execution Fallback (Deploy Lightweight Models at the Edge for Ultra-Low Latency)&lt;/font&gt;&lt;/div&gt;&lt;div&gt;&lt;font size=&quot;3&quot;&gt;- Spot Instance Optimization (Using AWS/GCP Spot GPUs for Cost Savings)&lt;br&gt;&lt;/font&gt;&lt;div&gt;&lt;font size=&quot;3&quot;&gt;- Adaptive Model Selection (Switch Between Light, Medium, and Large Models Dynamically)&lt;br&gt;&lt;/font&gt;&lt;div&gt;&lt;span style=&quot;background-color: transparent; color: light-dark(rgb(0, 0, 0), rgb(255, 255, 255));&quot;&gt;&lt;font size=&quot;3&quot;&gt;- Distillation for Lightweight AI Models (Run Distilled Versions of LLMs for Faster Predictions)&lt;/font&gt;&lt;/span&gt;&lt;/div&gt;&lt;div&gt;&lt;font size=&quot;3&quot;&gt;- Query Fusion &amp;amp; Coalescing (Merging Similar AI Requests to Optimize Throughput)&lt;/font&gt;&lt;/div&gt;&lt;/div&gt;&lt;/div&gt;&lt;div&gt;&lt;div&gt;&lt;font size=&quot;3&quot;&gt;- Dynamic Cost-Based Model Selection (Choosing the Optimal AI Model for Price vs. Accuracy)&lt;/font&gt;&lt;/div&gt;&lt;/div&gt;&lt;div&gt;&lt;div&gt;&lt;font size=&quot;3&quot;&gt;- Request Sharding Across AI Model Replicas (Distributing Load Across Multiple Model Copies)&lt;/font&gt;&lt;/div&gt;&lt;div&gt;&lt;font size=&quot;3&quot;&gt;- ML Model Versioning &amp;amp; Canary Deployments (Testing New Model Versions in Production)&lt;/font&gt;&lt;/div&gt;&lt;/div&gt;&lt;div&gt;&lt;font size=&quot;3&quot;&gt;&amp;nbsp;- QoS - Prioritizing VIP Users with better latencies and rate limits&lt;br&gt;&lt;/font&gt;&lt;div&gt;&lt;font size=&quot;3&quot;&gt;- Streaming AI Model Inference (Returning Partial Responses Before Full Inference Completes)&lt;/font&gt;&lt;/div&gt;&lt;/div&gt;&lt;div&gt;&lt;div&gt;&lt;span style=&quot;background-color: transparent; color: light-dark(rgb(0, 0, 0), rgb(255, 255, 255));&quot;&gt;&lt;font size=&quot;3&quot;&gt;- Multi-Modal Fusion Inference (Combining Text, Image, Audio Models in a Single Query)&lt;/font&gt;&lt;/span&gt;&lt;/div&gt;&lt;/div&gt;&lt;div&gt;&lt;div&gt;&lt;font size=&quot;3&quot;&gt;- AI Model Warm Pools (Pre-Warmed Instances for Predictable Low-Latency AI Inference)&lt;/font&gt;&lt;/div&gt;&lt;div&gt;&lt;font size=&quot;3&quot;&gt;- GPU Instance Pooling Across Clusters (Optimizing GPU Resource Allocation in AI Workloads)&lt;/font&gt;&lt;/div&gt;&lt;div&gt;&lt;font size=&quot;3&quot;&gt;- Multi-GPU Instance Sharing (Optimizing GPU Utilization Across AI Model Inference)&lt;/font&gt;&lt;/div&gt;&lt;div&gt;&lt;font size=&quot;3&quot;&gt;- On-Demand Model Weight Loading (Dynamically Loading Model Parts Instead of Full Weights)&lt;/font&gt;&lt;/div&gt;&lt;/div&gt;&lt;div&gt;&lt;div&gt;&lt;font size=&quot;3&quot;&gt;- Knowledge Distillation for Cost-Efficient AI Scaling (Using Smaller Models When Possible)&lt;/font&gt;&lt;/div&gt;&lt;div&gt;&lt;font size=&quot;3&quot;&gt;- Auto-Switching Between Transformers &amp;amp; Lighter ML Models Based on Complexity of Query&lt;/font&gt;&lt;/div&gt;&lt;div&gt;&lt;font size=&quot;3&quot;&gt;- Self-Optimizing AI Model Serving (ML-Based Auto-Tuning of AI Serving Infrastructure)&lt;/font&gt;&lt;/div&gt;&lt;/div&gt;&lt;div&gt;&lt;font size=&quot;3&quot;&gt;-&amp;nbsp;&lt;font style=&quot;&quot;&gt;&lt;span style=&quot;background-color: transparent; color: light-dark(rgb(0, 0, 0), rgb(255, 255, 255));&quot;&gt;Zero-Downtime Model Updates** (Rolling Upgrades and Canary Deployments)&lt;/span&gt;&lt;span style=&quot;background-color: transparent; color: light-dark(rgb(0, 0, 0), rgb(255, 255, 255));&quot; class=&quot;Apple-converted-space&quot;&gt;&amp;nbsp;&lt;/span&gt;&lt;/font&gt;&lt;/font&gt;&lt;/div&gt;&lt;p class=&quot;p1&quot;&gt;&lt;font size=&quot;3&quot; style=&quot;&quot;&gt;- Edge AI Execution Fallback (AI Processing at the Edge in Case of Cloud Failures) &lt;span class=&quot;Apple-converted-space&quot;&gt;&amp;nbsp;&lt;/span&gt;&lt;/font&gt;&lt;/p&gt;&lt;font size=&quot;3&quot;&gt;&lt;br&gt;&lt;br&gt;&lt;br&gt;&lt;br&gt;&lt;br&gt;&lt;br&gt;&lt;/font&gt;&lt;div&gt;&lt;br&gt;&lt;/div&gt;" style="text;html=1;align=left;verticalAlign=middle;whiteSpace=wrap;rounded=0;" vertex="1" parent="1">
          <mxGeometry x="-501" y="1060" width="880" height="720" as="geometry" />
        </mxCell>
        <mxCell id="YQkSSXiVzBJFBjS0m_dn-62" value="&lt;h1 style=&quot;text-align: left; margin-top: 0px;&quot;&gt;&lt;font style=&quot;font-size: 36px;&quot;&gt;Scalability Aspects&lt;/font&gt;&lt;/h1&gt;" style="text;html=1;align=center;verticalAlign=middle;whiteSpace=wrap;rounded=0;" vertex="1" parent="1">
          <mxGeometry x="-1791" y="960" width="860" height="160" as="geometry" />
        </mxCell>
        <mxCell id="YQkSSXiVzBJFBjS0m_dn-63" value="&lt;h1 style=&quot;text-align: left; margin-top: 0px;&quot;&gt;&lt;font style=&quot;font-size: 36px;&quot;&gt;Scalability Roadmap&lt;/font&gt;&lt;/h1&gt;" style="text;html=1;align=center;verticalAlign=middle;whiteSpace=wrap;rounded=0;" vertex="1" parent="1">
          <mxGeometry x="-740" y="980" width="860" height="160" as="geometry" />
        </mxCell>
        <mxCell id="YQkSSXiVzBJFBjS0m_dn-67" value="" style="group" connectable="0" vertex="1" parent="1">
          <mxGeometry x="-2160" y="-1264" width="380" height="120" as="geometry" />
        </mxCell>
        <mxCell id="YQkSSXiVzBJFBjS0m_dn-68" value="" style="outlineConnect=0;dashed=0;verticalLabelPosition=bottom;verticalAlign=top;align=center;html=1;shape=mxgraph.aws3.users;fillColor=#D2D3D3;gradientColor=none;" vertex="1" parent="YQkSSXiVzBJFBjS0m_dn-67">
          <mxGeometry width="66" height="63" as="geometry" />
        </mxCell>
        <mxCell id="YQkSSXiVzBJFBjS0m_dn-69" value="&lt;h1&gt;Vipas UI&lt;/h1&gt;&lt;p style=&quot;line-height: 10%;&quot;&gt;Human Users using UI&amp;nbsp;&lt;/p&gt;&lt;p style=&quot;line-height: 10%;&quot;&gt;&lt;span style=&quot;&quot;&gt;&lt;span style=&quot;white-space: pre;&quot;&gt;&amp;nbsp;&amp;nbsp;&amp;nbsp;&lt;/span&gt;&lt;/span&gt;&amp;nbsp;&#39;Upload Model&#39;, &#39;Predict&#39;&lt;/p&gt;&lt;p style=&quot;line-height: 10%;&quot;&gt;&lt;span style=&quot;&quot;&gt;&lt;span style=&quot;&quot;&gt;&lt;span style=&quot;white-space: pre;&quot;&gt;&amp;nbsp;&amp;nbsp;&amp;nbsp;&amp;nbsp;&lt;/span&gt;&lt;/span&gt;&#39;Get&#39;ting Model Status&lt;/span&gt;&lt;/p&gt;&amp;nbsp; &amp;nbsp; &#39;Get&#39;ting History/Logs&lt;div&gt;&amp;nbsp; &amp;nbsp; Monitoring, Payments etc&lt;/div&gt;" style="text;html=1;strokeColor=none;fillColor=none;spacing=5;spacingTop=-20;whiteSpace=wrap;overflow=hidden;rounded=0;" vertex="1" parent="1">
          <mxGeometry x="-2084" y="-1280" width="314" height="120" as="geometry" />
        </mxCell>
      </root>
    </mxGraphModel>
  </diagram>
</mxfile>
